<svg width="46" height="29" viewBox="0 0 46 29" fill="none" xmlns="http://www.w3.org/2000/svg">
<mask id="mask0_783_3403" style="mask-type:luminance" maskUnits="userSpaceOnUse" x="0" y="0" width="46" height="29">
<path d="M0.5 2.10938C0.5 0.949219 1.44922 0 2.60938 0H43.3906C44.5508 0 45.5 0.949219 45.5 2.10938V26.0156C45.5 27.1758 44.5508 28.125 43.3906 28.125H2.60938C1.44922 28.125 0.5 27.1758 0.5 26.0156V2.10938Z" fill="white"/>
</mask>
<g mask="url(#mask0_783_3403)">
<path d="M0.5 2.10938C0.5 0.949219 1.44922 0 2.60938 0H43.3906C44.5508 0 45.5 0.949219 45.5 2.10938V26.0156C45.5 27.1758 44.5508 28.125 43.3906 28.125H2.60938C1.44922 28.125 0.5 27.1758 0.5 26.0156V2.10938Z" fill="#246EA9"/>
</g>
<mask id="mask1_783_3403" style="mask-type:luminance" maskUnits="userSpaceOnUse" x="9" y="15" width="37" height="8">
<path d="M45.0078 17.3325H42.7578C42.5469 17.3325 42.3711 17.3325 42.2656 17.438C42.125 17.5083 42.0898 17.6489 42.0898 17.8247C42.0898 18.0356 42.1953 18.1411 42.3711 18.2114C42.5117 18.2466 42.6523 18.2817 42.8281 18.2817H43.4961C44.1641 18.3169 44.6211 18.4224 44.9023 18.7036C44.9375 18.7388 44.9727 18.7739 45.0078 18.8442V17.3325ZM45.0078 20.7427C44.6914 21.1997 44.1289 21.4106 43.3203 21.4106H40.9297V20.2856H43.3203C43.5664 20.2856 43.707 20.2505 43.8125 20.145C43.8828 20.0747 43.9531 19.9692 43.9531 19.7935C43.9531 19.6528 43.8828 19.5122 43.8125 19.4419C43.707 19.3716 43.6016 19.3364 43.3906 19.3364C42.2305 19.3013 40.7891 19.3716 40.7891 17.7192C40.7891 16.981 41.2813 16.1724 42.5469 16.1724H45.0078V15.1528H42.7227C42.0195 15.1528 41.5273 15.3286 41.1758 15.5747V15.1528H37.8008C37.2734 15.1528 36.6406 15.2935 36.3242 15.5747V15.1528H30.2773V15.5747C29.7852 15.2231 28.9766 15.1528 28.625 15.1528H24.6172V15.5747C24.2305 15.2231 23.3867 15.1528 22.8594 15.1528H18.4297L17.4102 16.313L16.4609 15.2231H9.78125V22.4302H16.3203L17.375 21.3052L18.3594 22.4302H22.4023V20.7427H22.7891C23.3164 20.7427 23.9492 20.7427 24.5117 20.4966V22.4302H27.8516V20.5669H28.0273C28.2383 20.5669 28.2383 20.5669 28.2383 20.7778V22.4302H38.3281C38.9609 22.4302 39.6289 22.2544 40.0156 21.9731V22.4302H43.2148C43.8828 22.4302 44.5156 22.3247 45.043 22.1138V20.7427H45.0078ZM40.0508 18.6685C40.2969 18.9146 40.4375 19.231 40.4375 19.7583C40.4375 20.8833 39.7344 21.3755 38.5039 21.3755H36.0781V20.2856H38.4688C38.7148 20.2856 38.8555 20.2505 38.9609 20.145C39.0313 20.0747 39.1016 19.9692 39.1016 19.7935C39.1016 19.6528 39.0313 19.5122 38.9609 19.4419C38.8555 19.3716 38.75 19.3364 38.5039 19.3364C37.3438 19.3013 35.9023 19.3716 35.9023 17.7192C35.9023 16.981 36.3594 16.1724 37.6602 16.1724H40.1211V17.2622H37.8711C37.625 17.2622 37.4844 17.2622 37.3789 17.3677C37.2383 17.438 37.2031 17.5786 37.2031 17.7544C37.2031 17.9653 37.3086 18.0708 37.4844 18.1411C37.625 18.1763 37.7656 18.2114 37.9766 18.2114H38.6445C39.3477 18.2817 39.7695 18.3872 40.0508 18.6685ZM28.9062 18.3521C28.7305 18.4575 28.5195 18.4575 28.3086 18.4575H26.7969V17.2974H28.3086C28.5195 17.2974 28.7656 17.2974 28.9062 17.4028C29.082 17.4731 29.1523 17.6489 29.1523 17.8599C29.1875 18.0708 29.082 18.2466 28.9062 18.3521ZM29.6797 18.9849C29.9609 19.0903 30.1719 19.2661 30.2773 19.4067C30.4531 19.6528 30.4883 19.8989 30.4883 20.356V21.3755H29.2578V20.7427C29.2578 20.4263 29.293 19.9692 29.0469 19.7231C28.8711 19.5474 28.5898 19.477 28.1328 19.477H26.7969V21.3755H25.5664V16.2427H28.4141C29.0469 16.2427 29.5039 16.2778 29.8906 16.4888C30.2773 16.7349 30.5234 17.0513 30.5234 17.6489C30.5234 18.4575 29.9961 18.8794 29.6797 18.9849ZM31.2266 16.2427H35.3398V17.3325H32.457V18.2817H35.2695V19.3364H32.457V20.356H35.3398V21.4458H31.2266V16.2427ZM22.8945 18.6333H21.2773V17.3325H22.8945C23.3516 17.3325 23.6328 17.5083 23.6328 17.9653C23.668 18.3872 23.3516 18.6333 22.8945 18.6333ZM20.0469 20.9536L18.1484 18.8442L20.0469 16.8052V20.9536ZM15.1602 20.3208H12.1367V19.3013H14.8438V18.2466H12.1367V17.2974H15.2305L16.5664 18.8091L15.1602 20.3208ZM24.9688 17.9302C24.9688 19.3716 23.9141 19.6528 22.8242 19.6528H21.2773V21.3755H18.8867L17.375 19.6528L15.793 21.3755H10.9063V16.2427H15.8633L17.375 17.9302L18.957 16.2427H22.8945C23.8789 16.2427 24.9688 16.5239 24.9688 17.9302Z" fill="white"/>
</mask>
<g mask="url(#mask1_783_3403)">
<path d="M46.7656 13.4658H8.02344V24.1885H46.7656V13.4658Z" fill="#FFFFFE"/>
</g>
<mask id="mask2_783_3403" style="mask-type:luminance" maskUnits="userSpaceOnUse" x="1" y="6" width="42" height="8">
<path d="M5 10.2656L4.15625 8.19141L3.3125 10.2656H5ZM23.6328 9.45703C23.457 9.5625 23.2461 9.5625 23.0352 9.5625H21.5234V8.40234H23.0352C23.2461 8.40234 23.4922 8.40234 23.6328 8.50781C23.8086 8.57813 23.8789 8.75391 23.8789 8.96484C23.8789 9.21094 23.7734 9.38672 23.6328 9.45703ZM34.3555 10.2656L33.5117 8.19141L32.668 10.2656H34.3555ZM14.3867 12.5156H13.1211V8.47266L11.3281 12.5156H10.2383L8.44531 8.47266V12.5156H5.94922L5.45703 11.3555H2.89063L2.39844 12.5156H1.0625L3.27734 7.34766H5.10547L7.21484 12.2344V7.34766H9.21875L10.8359 10.8633L12.3125 7.34766H14.3516V12.5156H14.3867ZM19.4141 12.5156H15.3008V7.34766H19.4141V8.4375H16.5312V9.35156H19.3438V10.4063H16.5312V11.4258H19.4141V12.5156ZM25.25 8.71875C25.25 9.52734 24.6875 9.98438 24.3711 10.0898C24.6523 10.1953 24.8633 10.3711 24.9688 10.5117C25.1445 10.7578 25.1797 11.0039 25.1797 11.4609V12.4805H23.9492V11.8125C23.9492 11.4961 23.9844 11.0391 23.7383 10.793C23.5625 10.6172 23.2812 10.582 22.8242 10.582H21.4883V12.4453H20.2578V7.34766H23.1055C23.7383 7.34766 24.1953 7.38281 24.6172 7.59375C25.0039 7.80469 25.25 8.15625 25.25 8.71875ZM25.9531 12.5156H27.2188V7.34766H25.9531V12.5156ZM41.8438 12.5156H40.0859L37.7305 8.64844V12.5156H35.1992L34.707 11.3555H32.1758L31.7187 12.5156H30.2773C29.6797 12.5156 28.9062 12.375 28.4844 11.9531C28.0625 11.4961 27.8164 10.9336 27.8164 9.98438C27.8164 9.21094 27.957 8.50781 28.4844 7.98047C28.8711 7.55859 29.5039 7.38281 30.3477 7.38281H31.543V8.47266H30.3828C29.9258 8.47266 29.6797 8.54297 29.4336 8.78906C29.2227 9 29.082 9.42188 29.082 9.94922C29.082 10.5117 29.1875 10.8984 29.4336 11.1797C29.6094 11.3906 29.9609 11.4609 30.2773 11.4609H30.8398L32.5977 7.38281H34.4609L36.5352 12.2695V7.34766H38.4336L40.6133 10.9336V7.34766H41.8789V12.5156H41.8438ZM1.02734 13.5352H3.13672L3.62891 12.375H4.68359L5.14063 13.5352H9.32422V12.6563L9.71094 13.5352H11.8555L12.207 12.6563V13.5352H22.543V11.6367H22.7539C22.8945 11.6367 22.9297 11.6719 22.9297 11.8828V13.5352H28.2734V13.0781C28.6953 13.3242 29.3633 13.5352 30.2422 13.5352H32.4922L32.9844 12.375H34.0391L34.4961 13.5352H38.8203V12.4453L39.4883 13.5352H42.9688V6.32812H39.5234V7.17188L39.0312 6.32812H35.5156V7.17188L35.0586 6.32812H30.3125C29.5039 6.32812 28.8008 6.43359 28.2383 6.75V6.32812H24.9688V6.75C24.6172 6.43359 24.125 6.32812 23.5625 6.32812H11.5742L10.7656 8.19141L9.95703 6.32812H6.16016V7.17188L5.73828 6.32812H2.50391L1.02734 9.73828V13.5352Z" fill="white"/>
</mask>
<g mask="url(#mask2_783_3403)">
<path d="M44.6914 4.57031H-0.730469V15.293H44.6914V4.57031Z" fill="#FFFFFE"/>
</g>
<path d="M27.2187 7.34766H25.9531V12.5156H27.2187V7.34766Z" fill="#246EA9"/>
</svg>
