<svg width="14" height="19" viewBox="0 0 14 19" fill="none" xmlns="http://www.w3.org/2000/svg">
<path d="M1.61537 18.5C1.15512 18.5 0.770833 18.3458 0.4625 18.0375C0.154167 17.7292 0 17.3449 0 16.8846V6.11538C0 5.65512 0.154167 5.27083 0.4625 4.9625C0.770833 4.65417 1.15512 4.5 1.61537 4.5H3.5V4C3.5 3.0282 3.84038 2.20192 4.52115 1.52115C5.20192 0.840384 6.0282 0.5 7 0.5C7.9718 0.5 8.79808 0.840384 9.47885 1.52115C10.1596 2.20192 10.5 3.0282 10.5 4V4.5H12.3846C12.8449 4.5 13.2292 4.65417 13.5375 4.9625C13.8458 5.27083 14 5.65512 14 6.11538V16.8846C14 17.3449 13.8458 17.7292 13.5375 18.0375C13.2292 18.3458 12.8449 18.5 12.3846 18.5H1.61537ZM1.61537 17.5H12.3846C12.5385 17.5 12.6795 17.4359 12.8077 17.3077C12.9359 17.1795 13 17.0385 13 16.8846V6.11538C13 5.96154 12.9359 5.82052 12.8077 5.6923C12.6795 5.5641 12.5385 5.5 12.3846 5.5H10.5V8C10.5 8.1423 10.4522 8.26121 10.3567 8.35672C10.2612 8.45224 10.1423 8.5 10 8.5C9.85768 8.5 9.73878 8.45224 9.64328 8.35672C9.54776 8.26121 9.5 8.1423 9.5 8V5.5H4.5V8C4.5 8.1423 4.45224 8.26121 4.35673 8.35672C4.26123 8.45224 4.14232 8.5 4 8.5C3.85768 8.5 3.73877 8.45224 3.64327 8.35672C3.54776 8.26121 3.5 8.1423 3.5 8V5.5H1.61537C1.46154 5.5 1.32052 5.5641 1.1923 5.6923C1.0641 5.82052 1 5.96154 1 6.11538V16.8846C1 17.0385 1.0641 17.1795 1.1923 17.3077C1.32052 17.4359 1.46154 17.5 1.61537 17.5ZM4.5 4.5H9.5V4C9.5 3.29615 9.25929 2.70353 8.77787 2.22213C8.29647 1.74071 7.70385 1.5 7 1.5C6.29615 1.5 5.70353 1.74071 5.22213 2.22213C4.74071 2.70353 4.5 3.29615 4.5 4V4.5Z" fill="black"/>
</svg>
