<svg width="24" height="20" viewBox="0 0 24 20" fill="none" xmlns="http://www.w3.org/2000/svg">
<path d="M24 3.10696V17.466C24 18.0796 23.7944 18.592 23.3833 19.0031C22.9722 19.4142 22.4598 19.6198 21.8462 19.6198H2.15383C1.54017 19.6198 1.02778 19.4142 0.616667 19.0031C0.205556 18.592 0 18.0796 0 17.466V3.10696C0 2.49329 0.205556 1.9809 0.616667 1.56979C1.02778 1.15868 1.54017 0.953125 2.15383 0.953125H21.8462C22.4598 0.953125 22.9722 1.15868 23.3833 1.56979C23.7944 1.9809 24 2.49329 24 3.10696ZM1.33333 6.03003H22.6667V3.10696C22.6667 2.90185 22.5812 2.71381 22.4103 2.54286C22.2393 2.37193 22.0513 2.28646 21.8462 2.28646H2.15383C1.94872 2.28646 1.76069 2.37193 1.58973 2.54286C1.4188 2.71381 1.33333 2.90185 1.33333 3.10696V6.03003ZM1.33333 9.20956V17.466C1.33333 17.6711 1.4188 17.8591 1.58973 18.0301C1.76069 18.201 1.94872 18.2865 2.15383 18.2865H21.8462C22.0513 18.2865 22.2393 18.201 22.4103 18.0301C22.5812 17.8591 22.6667 17.6711 22.6667 17.466V9.20956H1.33333Z" fill="black"/>
</svg>
