<svg width="26" height="26" viewBox="0 0 26 26" fill="none" xmlns="http://www.w3.org/2000/svg">
<path fill-rule="evenodd" clip-rule="evenodd" d="M19.9938 13.5244C19.8885 11.9036 20.1338 10.1353 18.3557 9.13574C19.129 8.60415 19.785 8.17205 20.4213 7.71103C21.1374 7.19448 21.1461 5.56963 20.4352 5.0444C19.748 4.53826 19.0365 4.07319 18.3424 3.58093C17.9322 3.29229 17.5111 3.18296 17.0357 3.39178C16.5677 3.59655 16.1165 3.69142 15.659 3.29981C15.4056 3.08463 15.1216 3.20032 14.8833 3.44326C14.6363 3.69547 14.3661 3.92279 14.0948 4.14723C13.8467 4.35258 13.4857 4.54057 13.72 4.93797C13.9699 5.36775 14.3534 5.16356 14.623 4.94144C15.1036 4.54289 15.5774 4.33985 16.1934 4.5828C16.3808 4.65568 16.6573 4.56255 16.8615 4.47C17.4064 4.22416 17.8646 4.35836 18.3105 4.71873C18.6327 4.97556 18.9723 5.20926 19.3014 5.45394C20.2067 6.12783 20.1859 6.76585 19.221 7.37611C18.7328 7.68327 18.2209 7.94762 18.0445 8.63134C17.6494 8.25246 17.3665 7.89093 17.0067 7.65203C14.9052 6.25798 12.6921 5.07448 10.4801 3.89272C10.0874 3.68216 9.6304 3.62894 9.27465 4.02518C8.50416 4.87607 7.49073 5.37411 6.58662 5.9971C5.83522 6.51365 6.02553 6.8289 6.3859 7.32926C6.54092 7.54502 6.74858 7.72376 6.95393 7.88861C9.13525 9.63899 11.3189 11.3882 13.5123 13.1212C13.9294 13.4521 14.1336 13.8362 14.2423 14.3932C14.6675 16.5693 14.7265 18.7634 14.712 20.9696C14.701 22.7095 14.9833 22.9149 16.5365 22.3989C16.7811 22.315 17.0293 22.2167 17.2526 22.0802C17.9774 21.6411 18.657 21.0974 19.4177 20.7555C20.1303 20.4357 20.3571 19.9851 20.3033 19.2036C20.1754 17.3138 20.1164 15.4165 19.9938 13.5244ZM19.1354 19.7843C18.2822 20.2951 17.4585 20.8608 16.5862 21.3323C15.8036 21.7557 15.6503 21.6284 15.6219 20.7197C15.6173 20.5652 15.6156 20.4125 15.6156 20.2598V18.9803C15.7677 17.2947 15.2766 15.5085 15.0545 13.6898C14.9718 13.0131 14.4726 12.6695 14.0063 12.3004C11.884 10.6131 9.77501 8.90899 7.64749 7.23034C7.18184 6.86477 7.17316 6.65537 7.68509 6.34069C8.38211 5.91438 9.05484 5.43659 9.71138 4.94028C9.9792 4.73609 10.1857 4.79509 10.4234 4.92929C12.326 6.01734 14.2481 7.06838 16.1217 8.21023C17.1542 8.84131 17.8223 9.93978 18.7102 10.767C18.926 10.9677 18.8948 11.2731 18.911 11.5427C19.0648 14.0485 19.2135 16.5543 19.3581 19.059C19.3749 19.3245 19.4368 19.6062 19.1354 19.7843Z" fill="black"/>
<path fill-rule="evenodd" clip-rule="evenodd" d="M21.2912 9.89581C21.4781 9.75352 21.6441 9.57941 21.8344 9.44289C22.9438 8.64637 23.8485 7.52882 25.2293 7.15283C25.8025 6.99723 25.8621 6.34301 25.3588 5.94851C24.8296 5.53318 24.2529 5.17223 23.664 4.8593C21.4324 3.67811 19.5304 1.97343 17.54 0.424359C16.8892 -0.0817808 16.4936 -0.152351 15.899 0.305777C14.712 1.21856 13.5106 2.10995 12.3178 3.01406C12.0239 3.23734 11.7278 3.53176 11.98 3.91817C12.2183 4.2849 12.5376 4.0541 12.8066 3.85049C13.9305 3.00075 15.0602 2.16085 16.1789 1.30417C16.4352 1.1075 16.6255 1.02074 16.9396 1.24401C19.3233 2.94349 21.4948 4.98597 24.3281 6.29615C22.9623 7.24538 21.8274 8.17726 20.7139 9.13979C20.4635 9.3567 20.1789 9.62915 20.4496 9.97969C20.711 10.3169 21.0274 10.0965 21.2912 9.89581Z" fill="black"/>
<path fill-rule="evenodd" clip-rule="evenodd" d="M0.947565 12.6433C2.64935 14.0253 4.48071 15.1607 6.37338 16.2043C6.70309 16.3859 7.0062 16.6288 7.30178 16.8695C8.65245 17.9691 8.64956 17.9708 10.0662 17.1089C10.2409 17.0037 10.4236 16.9134 10.6007 16.8087C11.481 16.2904 12.3655 15.7808 13.2384 15.2469C13.5224 15.0722 13.7879 14.794 13.5426 14.4302C13.339 14.1305 13.0243 14.2665 12.7594 14.4209C11.6002 15.0994 10.4416 15.7768 9.28296 16.457C9.13372 16.5438 8.99316 16.6485 8.87805 16.726C8.58304 16.7185 8.40835 16.5409 8.23829 16.3865C7.3978 15.6258 6.42891 15.0798 5.45249 14.5592C4.15909 13.8702 2.98196 13.0043 1.82044 12.095C1.32008 11.7016 1.40107 11.52 1.85167 11.2059C2.67191 10.6333 3.52165 10.1213 4.41187 9.68634C4.83934 9.47752 5.21938 9.21953 5.5115 8.82735C5.70759 8.56589 5.98119 8.26683 5.68329 7.94811C5.38887 7.63401 5.08229 7.86134 4.87231 8.13206C4.58425 8.50284 4.20132 8.6891 3.81318 8.8956C2.83503 9.41447 1.8725 9.96226 0.986899 10.6564C-0.342367 11.7011 -0.302454 11.6276 0.947565 12.6433Z" fill="black"/>
<path fill-rule="evenodd" clip-rule="evenodd" d="M12.7929 20.4069C11.7713 20.9107 10.8279 21.5603 9.86882 22.181C9.56571 22.3771 9.27823 22.616 8.85885 22.2764C6.34262 20.2403 3.57129 18.605 0.989688 16.6713C0.805743 16.5331 0.618905 16.4665 0.434381 16.5996C0.210523 16.761 0.225562 17.0166 0.294976 17.2625C0.366703 17.5141 0.543129 17.683 0.754261 17.7854C2.46877 18.6224 3.81886 20.061 5.46801 21.0062C6.30444 21.4857 7.11426 22.0167 7.85525 22.6547C8.02821 22.804 8.21215 22.9052 8.22141 23.2187C8.24454 24.0731 8.40188 24.1645 9.09544 23.7526C10.4525 22.948 11.7985 22.1255 13.1503 21.3116C13.3788 21.1739 13.6085 21.0415 13.6524 20.6099C13.502 20.1744 13.1654 20.223 12.7929 20.4069Z" fill="black"/>
<path fill-rule="evenodd" clip-rule="evenodd" d="M13.8718 17.3523C13.7347 16.7947 13.3518 16.9022 12.9926 17.0578C11.654 17.6403 10.4185 18.4259 9.24654 19.3196C8.91741 19.5706 8.69471 19.629 8.34591 19.3548C6.07725 17.5709 3.70504 15.9513 1.30912 14.3704C1.03899 14.1928 0.750346 13.9204 0.480212 14.2859C0.217598 14.6394 0.492938 14.9083 0.735306 15.1357C0.864878 15.2571 1.00602 15.3659 1.15526 15.459C3.63389 17.0185 6.00957 18.7423 8.32624 20.5586C8.62934 20.7969 8.95906 20.9236 9.26853 20.6188C10.4914 19.415 11.9548 18.6376 13.4495 17.9105C13.6659 17.8058 13.8544 17.6687 13.8718 17.3523Z" fill="black"/>
<path fill-rule="evenodd" clip-rule="evenodd" d="M13.2352 22.4592C12.0101 23.2713 10.5738 23.6438 9.3897 24.5271C8.84769 24.9303 8.40807 24.8875 7.92276 24.4525C7.30671 23.9024 6.66638 23.3824 6.0324 22.8543C4.45267 21.5366 2.41828 21.1137 0.799209 19.8701C0.587498 19.7075 0.283236 19.6474 0.0992907 19.9285C-0.115891 20.2588 0.0830942 20.5174 0.339345 20.6938C0.918369 21.0917 1.45632 21.5632 2.11749 21.8136C3.90257 22.4887 5.48635 23.5131 6.91164 24.8412C7.42125 25.3156 7.94243 25.8263 8.7187 25.953C8.95065 25.8443 9.23236 25.7563 9.47068 25.5961C10.5223 24.8904 11.6589 24.3715 12.7898 23.8359C13.1027 23.6878 13.3966 23.4859 13.6794 23.2777C13.9021 23.1151 14.0745 22.8693 13.9189 22.5743C13.7593 22.2712 13.4614 22.3088 13.2352 22.4592Z" fill="black"/>
<path fill-rule="evenodd" clip-rule="evenodd" d="M6.38753 10.8791C6.77162 10.5586 7.17132 10.2584 7.5369 9.91652C7.71159 9.7534 7.79778 9.50236 7.65895 9.25016C7.54095 9.03555 7.33329 8.94763 7.14356 9.08819C6.41356 9.62846 5.69397 10.1861 4.98654 10.7582C4.89398 10.8328 4.88936 11.0318 4.84424 11.1729C4.9177 12.1337 4.9715 13.0395 5.99939 13.5029C6.45579 13.7082 6.79707 14.193 7.20372 14.5319C7.35758 14.6609 7.56351 14.8391 7.72258 14.816C9.05127 14.6233 10.3973 14.4504 11.4362 13.3941C11.6097 13.2177 11.7682 13.0245 11.6259 12.7567C11.4593 12.4449 11.1915 12.4854 10.948 12.6196C10.5911 12.8157 10.2521 13.0471 9.9039 13.2611C8.86212 13.9032 7.84695 13.817 6.94573 13.0176C6.7693 12.8608 6.58246 12.7168 6.40083 12.5681C5.73331 12.0203 5.7281 11.428 6.38753 10.8791Z" fill="black"/>
<path fill-rule="evenodd" clip-rule="evenodd" d="M21.0967 12.9109C21.1811 12.8849 21.2916 12.8531 21.3992 12.8126C22.9112 12.2434 24.0132 10.9413 25.4558 10.2426C25.6635 10.1419 25.7977 9.88163 25.6438 9.61902C25.4414 9.27542 25.1602 9.38706 24.8803 9.5068C23.4041 10.1402 22.3131 11.4672 20.8109 12.0566C20.5789 12.1468 20.4731 12.3938 20.5622 12.6674C20.646 12.9248 20.8647 12.9086 21.0967 12.9109Z" fill="black"/>
<path fill-rule="evenodd" clip-rule="evenodd" d="M21.3873 15.4163C22.3353 14.71 23.4506 14.3623 24.4426 13.755C24.84 13.512 25.2478 13.2899 25.6371 13.0348C25.813 12.9197 25.9281 12.7253 25.8563 12.4882C25.7863 12.2574 25.6163 12.1614 25.3901 12.1781C25.3334 12.192 25.271 12.1926 25.2241 12.2227C23.8156 13.0973 22.2428 13.6381 20.8881 14.6209C20.6712 14.7777 20.471 15.0096 20.6347 15.3121C20.8239 15.6581 21.149 15.5938 21.3873 15.4163Z" fill="black"/>
<path fill-rule="evenodd" clip-rule="evenodd" d="M25.9567 15.3128C25.7797 14.8957 25.4297 15.0236 25.1347 15.1427C24.9241 15.2289 24.7009 15.3446 24.5441 15.5106C23.8638 16.236 23.0563 16.7421 22.1921 17.169C21.8283 17.3489 21.4818 17.5693 21.1371 17.7856C20.9491 17.9031 20.8519 18.0986 20.9051 18.3294C20.9635 18.5851 21.1677 18.6238 21.4107 18.6244C21.7346 18.5891 22.0221 18.3797 22.3339 18.2264C23.5127 17.6462 24.5412 16.8277 25.572 16.0029C25.8103 15.812 26.114 15.6836 25.9567 15.3128Z" fill="black"/>
</svg>
