<svg width="14" height="16" viewBox="0 0 14 16" fill="none" xmlns="http://www.w3.org/2000/svg">
<path d="M2.61537 15.8845C2.16794 15.8845 1.78685 15.7271 1.4721 15.4124C1.15737 15.0976 1 14.7165 1 14.2691V1.88448H0V0.884485H4V0.115234H10V0.884485H14V1.88448H13V14.2691C13 14.7294 12.8458 15.1137 12.5375 15.422C12.2292 15.7303 11.8449 15.8845 11.3846 15.8845H2.61537ZM12 1.88448H2V14.2691C2 14.4486 2.05769 14.596 2.17308 14.7114C2.28846 14.8268 2.43589 14.8845 2.61537 14.8845H11.3846C11.5385 14.8845 11.6795 14.8204 11.8077 14.6922C11.9359 14.564 12 14.4229 12 14.2691V1.88448ZM4.80768 12.8845H5.8077V3.88449H4.80768V12.8845ZM8.1923 12.8845H9.19232V3.88449H8.1923V12.8845Z" fill="black"/>
</svg>
