<svg width="45" height="19" viewBox="0 0 45 19" fill="none" xmlns="http://www.w3.org/2000/svg">
<path d="M21.2832 14.5886H19.6214V1.6523H24.0288C24.5549 1.64131 25.078 1.73461 25.5678 1.92683C26.0577 2.11905 26.5046 2.40637 26.8828 2.77221C27.2649 3.11585 27.5689 3.53728 27.7745 4.00818C27.9802 4.47908 28.0826 4.98855 28.075 5.50233C28.0859 6.01887 27.9851 6.53166 27.7793 7.00556C27.5735 7.47946 27.2677 7.90327 26.8828 8.24793C26.1121 8.98285 25.1608 9.34996 24.0288 9.34927H21.2832V14.5886ZM21.2832 7.76075H24.0701C24.3756 7.7698 24.6797 7.71499 24.9628 7.59982C25.246 7.48465 25.5019 7.31165 25.7144 7.09189C25.9257 6.88642 26.0937 6.64066 26.2084 6.36915C26.3231 6.09763 26.3822 5.80586 26.3822 5.51111C26.3822 5.21635 26.3231 4.92459 26.2084 4.65307C26.0937 4.38155 25.9257 4.13579 25.7144 3.93032C25.5046 3.70593 25.2495 3.5287 24.966 3.41036C24.6826 3.29202 24.3772 3.23529 24.0701 3.24392H21.2832V7.76075Z" fill="#5F6368"/>
<path d="M31.9044 5.44866C33.1327 5.44866 34.1022 5.77689 34.8131 6.43336C35.5239 7.08983 35.879 7.98989 35.8783 9.13355V14.5886H34.2887V13.3603H34.2165C33.5283 14.3719 32.6131 14.8776 31.4709 14.8776C30.4958 14.8776 29.68 14.5886 29.0236 14.0106C28.7085 13.7453 28.4566 13.4131 28.2863 13.0381C28.1159 12.6631 28.0314 12.2548 28.0389 11.843C28.0389 10.9271 28.385 10.1988 29.0772 9.65789C29.7695 9.11703 30.6936 8.84591 31.8497 8.84454C32.8364 8.84454 33.6491 9.02517 34.2877 9.38643V9.00659C34.2896 8.72585 34.2289 8.44822 34.1102 8.19381C33.9915 7.93941 33.8177 7.71461 33.6013 7.53573C33.1618 7.13925 32.5891 6.92291 31.9973 6.92984C31.069 6.92984 30.3344 7.32138 29.7936 8.10446L28.3299 7.18272C29.135 6.02668 30.3265 5.44866 31.9044 5.44866ZM29.7543 11.8791C29.7532 12.0906 29.8027 12.2993 29.8985 12.4879C29.9944 12.6764 30.134 12.8393 30.3055 12.9629C30.6731 13.252 31.1293 13.4052 31.5968 13.3965C32.298 13.3953 32.9702 13.1162 33.4661 12.6203C34.0166 12.1021 34.2918 11.4941 34.2918 10.7964C33.7737 10.3835 33.0511 10.1771 32.1242 10.1771C31.4492 10.1771 30.8863 10.3398 30.4356 10.6653C29.9804 10.9956 29.7543 11.3971 29.7543 11.8791Z" fill="#5F6368"/>
<path d="M45.0028 5.73767L39.4538 18.4903H37.7383L39.7975 14.0281L36.1487 5.73767H37.955L40.5922 12.0959H40.6284L43.1933 5.73767H45.0028Z" fill="#5F6368"/>
<path d="M14.5679 8.2211C14.5685 7.71466 14.5257 7.2091 14.4399 6.70999H7.43137V9.57222H11.4455C11.3634 10.0294 11.1895 10.4651 10.9344 10.8533C10.6793 11.2414 10.3483 11.5739 9.96124 11.8306V13.6886H12.3569C13.7597 12.3952 14.5679 10.4826 14.5679 8.2211Z" fill="#4285F4"/>
<path d="M7.43137 15.4835C9.43689 15.4835 11.1255 14.825 12.3569 13.6896L9.96124 11.8317C9.29445 12.2838 8.43568 12.5418 7.43137 12.5418C5.49293 12.5418 3.84763 11.2351 3.25929 9.47416H0.791344V11.3889C1.4099 12.6197 2.35838 13.6544 3.5309 14.3775C4.70342 15.1005 6.05383 15.4835 7.43137 15.4835Z" fill="#34A853"/>
<path d="M3.25929 9.47416C2.94825 8.55144 2.94825 7.5522 3.25929 6.62948V4.71478H0.791344C0.270997 5.75022 0 6.89299 0 8.05182C0 9.21065 0.270997 10.3534 0.791344 11.3889L3.25929 9.47416Z" fill="#FBBC04"/>
<path d="M7.43137 3.56183C8.4912 3.54452 9.51528 3.94495 10.2823 4.67659L12.4034 2.55546C11.0584 1.29214 9.27651 0.598566 7.43137 0.620116C6.05383 0.620179 4.70342 1.00311 3.5309 1.72616C2.35838 2.44921 1.4099 3.48393 0.791344 4.71478L3.25929 6.62948C3.84763 4.86857 5.49293 3.56183 7.43137 3.56183Z" fill="#EA4335"/>
</svg>
