<svg width="46" height="29" viewBox="0 0 46 29" fill="none" xmlns="http://www.w3.org/2000/svg">
<path d="M0.5 2.10938C0.5 0.949219 1.44922 0 2.60938 0H43.3906C44.5508 0 45.5 0.949219 45.5 2.10938V26.0156C45.5 27.1758 44.5508 28.125 43.3906 28.125H2.60938C1.44922 28.125 0.5 27.1758 0.5 26.0156V2.10938Z" fill="black"/>
<mask id="mask0_783_3351" style="mask-type:luminance" maskUnits="userSpaceOnUse" x="0" y="0" width="46" height="29">
<path d="M0.5 2.10938C0.5 0.949219 1.44922 0 2.60938 0H43.3906C44.5508 0 45.5 0.949219 45.5 2.10938V26.0156C45.5 27.1758 44.5508 28.125 43.3906 28.125H2.60938C1.44922 28.125 0.5 27.1758 0.5 26.0156V2.10938Z" fill="white"/>
</mask>
<g mask="url(#mask0_783_3351)">
<path d="M0.5 2.10938C0.5 0.949219 1.44922 0 2.60938 0H43.3906C44.5508 0 45.5 0.949219 45.5 2.10938V26.0156C45.5 27.1758 44.5508 28.125 43.3906 28.125H2.60938C1.44922 28.125 0.5 27.1758 0.5 26.0156V2.10938Z" fill="black" stroke="black" stroke-width="2" stroke-miterlimit="10"/>
</g>
<mask id="mask1_783_3351" style="mask-type:luminance" maskUnits="userSpaceOnUse" x="11" y="20" width="25" height="4">
<path d="M15.0195 23.8379V22.502C15.0195 22.0098 14.7383 21.6934 14.2109 21.6582C13.9297 21.6582 13.6836 21.7285 13.4727 22.0449C13.332 21.7988 13.0859 21.6582 12.7695 21.6582C12.5586 21.6582 12.3125 21.7285 12.1367 21.9746V21.7285H11.7148V23.8379H12.1367V22.6426C12.1367 22.291 12.3477 22.0801 12.6641 22.0801C12.9805 22.0801 13.1211 22.291 13.1211 22.6426V23.8379H13.543V22.6426C13.543 22.291 13.7539 22.0801 14.0703 22.0801C14.3867 22.0801 14.5625 22.291 14.5625 22.6426V23.8379H15.0195ZM21.8398 21.7285H21.0664V21.0957H20.6445V21.7285H20.1875V22.1152H20.6445V23.0996C20.6445 23.5918 20.8203 23.873 21.3477 23.873C21.5586 23.873 21.7695 23.8027 21.9102 23.6973L21.7695 23.3105C21.6289 23.3809 21.4883 23.416 21.3828 23.416C21.1719 23.416 21.0664 23.2754 21.0664 23.0645V22.0801H21.8398V21.7285ZM25.7422 21.6934C25.4961 21.6934 25.2852 21.7988 25.1797 22.0098V21.7637H24.7578V23.873H25.1797V22.6777C25.1797 22.3262 25.3555 22.1152 25.6367 22.1152C25.7422 22.1152 25.8125 22.1152 25.918 22.1855L26.0586 21.7988C25.9531 21.6934 25.8125 21.6934 25.7422 21.6934ZM19.8359 21.9043C19.625 21.7637 19.3086 21.6934 18.9922 21.6934C18.4648 21.6934 18.1484 21.9395 18.1484 22.3613C18.1484 22.7129 18.3945 22.9238 18.8516 22.959L19.0625 22.9941C19.3086 23.0293 19.4492 23.0996 19.4492 23.2402C19.4492 23.416 19.2734 23.5215 18.957 23.5215C18.6406 23.5215 18.4297 23.416 18.2539 23.3105L18.043 23.627C18.3594 23.8379 18.7109 23.9082 18.957 23.9082C19.5547 23.9082 19.9062 23.627 19.9062 23.2402C19.9062 22.8887 19.6602 22.6777 19.2031 22.6074L18.9922 22.5723C18.7812 22.5371 18.6055 22.502 18.6055 22.3613C18.6055 22.2207 18.7812 22.1152 19.0273 22.1152C19.3086 22.1152 19.5547 22.2207 19.6953 22.291L19.8359 21.9043ZM26.1992 22.7832C26.1992 23.416 26.6211 23.873 27.2891 23.873C27.6055 23.873 27.8164 23.8027 28.0273 23.627L27.8164 23.3105C27.6406 23.416 27.4648 23.4863 27.2539 23.4863C26.9023 23.4863 26.6211 23.2051 26.6211 22.7832C26.6211 22.3613 26.9023 22.0801 27.2539 22.0801C27.4648 22.0801 27.6406 22.1504 27.8164 22.2559L28.0273 21.9395C27.8164 21.7637 27.6055 21.6934 27.2891 21.6934C26.6211 21.6934 26.1992 22.1504 26.1992 22.7832ZM23.2461 21.6934C22.6484 21.6934 22.2266 22.1504 22.2266 22.7832C22.2266 23.4512 22.6484 23.873 23.2813 23.873C23.5977 23.873 23.8789 23.8027 24.125 23.5918L23.9141 23.2754C23.7383 23.416 23.5273 23.4863 23.3164 23.4863C23.0352 23.4863 22.7187 23.3105 22.6836 22.959H24.2656C24.2656 22.8887 24.2656 22.8535 24.2656 22.7832C24.2305 22.1152 23.8437 21.6934 23.2461 21.6934ZM23.2461 22.0801C23.5625 22.0801 23.7734 22.291 23.8086 22.6074H22.6836C22.7187 22.291 22.9297 22.0801 23.2461 22.0801ZM17.5859 22.7832V21.7285H17.1641V21.9746C17.0234 21.7988 16.7773 21.6582 16.4961 21.6582C15.8984 21.6582 15.4766 22.1152 15.4766 22.748C15.4766 23.3809 15.9336 23.8379 16.4961 23.8379C16.7773 23.8379 17.0234 23.7324 17.1641 23.5215V23.7676H17.5859V22.7832ZM15.8633 22.7832C15.8633 22.3965 16.1094 22.0801 16.5312 22.0801C16.918 22.0801 17.1641 22.3965 17.1641 22.7832C17.1641 23.2051 16.918 23.4863 16.5312 23.4863C16.1445 23.4863 15.8633 23.1699 15.8633 22.7832ZM32.0703 21.6934C31.8242 21.6934 31.6133 21.7988 31.5078 22.0098V21.7637H31.0859V23.873H31.5078V22.6777C31.5078 22.3262 31.6836 22.1152 31.9648 22.1152C32.0703 22.1152 32.1406 22.1152 32.2461 22.1855L32.3867 21.7988C32.2812 21.6934 32.1406 21.6934 32.0703 21.6934ZM35.4453 23.5215C35.4805 23.5215 35.5156 23.5215 35.5156 23.5215C35.5508 23.5215 35.5508 23.5566 35.5859 23.5566C35.6211 23.5918 35.6211 23.5918 35.6211 23.627C35.6211 23.6621 35.6211 23.6621 35.6211 23.6973C35.6211 23.7324 35.6211 23.7676 35.6211 23.7676C35.6211 23.8027 35.5859 23.8027 35.5859 23.8379C35.5508 23.873 35.5508 23.873 35.5156 23.873C35.4805 23.873 35.4453 23.873 35.4453 23.873C35.4102 23.873 35.375 23.873 35.375 23.873C35.3398 23.873 35.3398 23.8379 35.3047 23.8379C35.2695 23.8027 35.2695 23.8027 35.2695 23.7676C35.2695 23.7324 35.2695 23.7324 35.2695 23.6973C35.2695 23.6621 35.2695 23.627 35.2695 23.627C35.2695 23.5918 35.3047 23.5918 35.3047 23.5566C35.3398 23.5215 35.3398 23.5215 35.375 23.5215C35.375 23.5215 35.4102 23.5215 35.4453 23.5215ZM35.4453 23.9082C35.4805 23.9082 35.4805 23.9082 35.5156 23.9082C35.5508 23.9082 35.5508 23.873 35.5508 23.873L35.5859 23.8379C35.5859 23.8027 35.5859 23.8027 35.5859 23.7676C35.5859 23.7324 35.5859 23.7324 35.5859 23.6973C35.5859 23.6621 35.5508 23.6621 35.5508 23.6621L35.5156 23.627C35.4805 23.627 35.4805 23.627 35.4453 23.627C35.4102 23.627 35.4102 23.627 35.375 23.627C35.3398 23.627 35.3398 23.6621 35.3398 23.6621L35.3047 23.6973C35.3047 23.7324 35.3047 23.7324 35.3047 23.7676C35.3047 23.8027 35.3047 23.8027 35.3047 23.8379C35.3047 23.873 35.3398 23.873 35.3398 23.873L35.375 23.9082C35.4102 23.9082 35.4102 23.9082 35.4453 23.9082ZM35.4453 23.627C35.4805 23.627 35.4805 23.627 35.5156 23.627L35.5508 23.6621V23.6973C35.5508 23.6973 35.5156 23.6973 35.5156 23.7324L35.5859 23.8027H35.5508L35.4805 23.7324H35.4453V23.8027H35.4102V23.5918H35.4453V23.627ZM35.4102 23.6621L35.4805 23.6973C35.4805 23.6973 35.4805 23.6973 35.4805 23.6621C35.4805 23.6621 35.4805 23.6621 35.4805 23.627C35.4805 23.627 35.4805 23.627 35.4102 23.6621ZM30.4531 22.7832V21.7285H30.0312V21.9746C29.8906 21.7988 29.6445 21.6582 29.3633 21.6582C28.7656 21.6582 28.3437 22.1152 28.3437 22.748C28.3437 23.3809 28.8008 23.8379 29.3633 23.8379C29.6445 23.8379 29.8906 23.7324 30.0312 23.5215V23.7676H30.4531V22.7832ZM28.7656 22.7832C28.7656 22.3965 29.0117 22.0801 29.4336 22.0801C29.8203 22.0801 30.0664 22.3965 30.0664 22.7832C30.0664 23.2051 29.8203 23.4863 29.4336 23.4863C29.0117 23.4863 28.7656 23.1699 28.7656 22.7832ZM34.6719 22.7832V20.8848H34.25V21.9746C34.1094 21.7988 33.8633 21.6582 33.582 21.6582C32.9844 21.6582 32.5625 22.1152 32.5625 22.748C32.5625 23.3809 33.0195 23.8379 33.582 23.8379C33.8633 23.8379 34.1094 23.7324 34.25 23.5215V23.7676H34.6719V22.7832ZM32.9844 22.7832C32.9844 22.3965 33.2305 22.0801 33.6523 22.0801C34.0391 22.0801 34.2852 22.3965 34.2852 22.7832C34.2852 23.2051 34.0391 23.4863 33.6523 23.4863C33.2305 23.4863 32.9844 23.1699 32.9844 22.7832Z" fill="white"/>
</mask>
<g mask="url(#mask1_783_3351)">
<path d="M37.4141 19.127H9.95703V25.7012H37.4141V19.127Z" fill="white"/>
</g>
<mask id="mask2_783_3351" style="mask-type:luminance" maskUnits="userSpaceOnUse" x="19" y="5" width="8" height="14">
<path d="M26.9375 5.80078H19.3438V18.2109H26.9375V5.80078Z" fill="white"/>
</mask>
<g mask="url(#mask2_783_3351)">
<path d="M28.6953 4.04297H17.5859V19.9688H28.6953V4.04297Z" fill="#FF5F00"/>
</g>
<mask id="mask3_783_3351" style="mask-type:luminance" maskUnits="userSpaceOnUse" x="10" y="4" width="14" height="16">
<path d="M20.1523 11.9883C20.1523 9.45703 21.3477 7.24219 23.1758 5.80078C21.8398 4.74609 20.1523 4.11328 18.2891 4.11328C13.9297 4.11328 10.4141 7.62891 10.4141 11.9883C10.4141 16.3477 13.9297 19.8633 18.2891 19.8633C20.1172 19.8633 21.8047 19.2305 23.1758 18.1758C21.3125 16.7344 20.1523 14.4844 20.1523 11.9883Z" fill="white"/>
</mask>
<g mask="url(#mask3_783_3351)">
<path d="M24.8984 2.35547H8.62109V21.6562H24.8984V2.35547Z" fill="#EB001B"/>
</g>
<mask id="mask4_783_3351" style="mask-type:luminance" maskUnits="userSpaceOnUse" x="35" y="16" width="1" height="1">
<path d="M35.1641 16.873V16.627H35.2695V16.5918H35.0234V16.627H35.1289L35.1641 16.873ZM35.6563 16.873V16.5566H35.5859L35.4805 16.7676L35.375 16.5566H35.3047V16.873H35.375V16.627L35.4453 16.8379H35.5156L35.5859 16.627V16.873H35.6563Z" fill="white"/>
</mask>
<g mask="url(#mask4_783_3351)">
<path d="M37.4141 14.7988H33.2305V18.6309H37.4141V14.7988Z" fill="#F79E1B"/>
</g>
<mask id="mask5_783_3351" style="mask-type:luminance" maskUnits="userSpaceOnUse" x="23" y="4" width="13" height="16">
<path d="M35.9023 11.9883C35.9023 16.3477 32.3867 19.8633 28.0273 19.8633C26.1992 19.8633 24.5117 19.2305 23.1406 18.1758C24.9687 16.7344 26.1641 14.4844 26.1641 11.9883C26.1641 9.45703 24.9687 7.24219 23.1406 5.80078C24.4766 4.74609 26.1641 4.11328 28.0273 4.11328C32.3867 4.11328 35.9023 7.62891 35.9023 11.9883Z" fill="white"/>
</mask>
<g mask="url(#mask5_783_3351)">
<path d="M37.6602 2.35547H21.3828V21.6562H37.6602V2.35547Z" fill="#F79E1B"/>
</g>
</svg>
