<svg width="45" height="15" viewBox="0 0 45 15" fill="none" xmlns="http://www.w3.org/2000/svg">
<g clip-path="url(#clip0_1139_3614)">
<path d="M44.8499 4.59717C44.4397 3.42896 43.3264 2.59033 42.0227 2.59033H41.9934C41.1438 2.59033 40.3784 2.94556 39.8328 3.51318C39.2871 2.94556 38.5217 2.59033 37.6721 2.59033H37.6465C36.8994 2.59033 36.2146 2.86499 35.6909 3.31543V3.08838C35.6726 2.85767 35.4858 2.67822 35.2515 2.67822H33.2446C32.9993 2.67822 32.8015 2.87598 32.8015 3.12134V14.0125C32.8015 14.2578 32.9993 14.4556 33.2446 14.4556H35.2515C35.4749 14.4556 35.6616 14.2871 35.6873 14.0747V6.2561C35.6873 6.22681 35.6873 6.20483 35.6909 6.1792C35.7239 5.8313 35.9802 5.54199 36.3831 5.50903H36.7529C36.9214 5.52368 37.0642 5.58228 37.1741 5.67383C37.3499 5.81299 37.4451 6.02539 37.4451 6.25977L37.4524 14.0381C37.4524 14.2834 37.6501 14.4849 37.8955 14.4849H39.9023C40.1404 14.4849 40.3308 14.2981 40.3418 14.0637V6.25244C40.3418 5.99609 40.459 5.76172 40.6677 5.62622C40.7703 5.5603 40.8948 5.51636 41.0376 5.50171H41.4075C41.8433 5.53833 42.1033 5.86792 42.1033 6.25244L42.1106 14.0234C42.1106 14.2688 42.3083 14.4666 42.5537 14.4666H44.5605C44.7949 14.4666 44.989 14.2834 45.0037 14.0527V5.53101C44.9927 5.05127 44.9304 4.82788 44.8499 4.59717ZM31.2708 2.70752H30.1245V0.847168C30.1245 0.843506 30.1245 0.843506 30.1245 0.839844C30.1245 0.620117 29.9451 0.437012 29.718 0.437012C29.6924 0.437012 29.6667 0.440674 29.6411 0.444336C28.3704 0.792236 28.623 2.55371 26.3013 2.70386H26.0779C26.0449 2.70386 26.012 2.70752 25.979 2.71484C25.7849 2.76245 25.6348 2.93823 25.6348 3.15064V5.15747C25.6348 5.40283 25.8325 5.60059 26.0779 5.60059H27.2864L27.2827 14.104C27.2827 14.3457 27.4805 14.5435 27.7222 14.5435H29.707C29.9487 14.5435 30.1465 14.3457 30.1465 14.104V5.60059H31.2708C31.5125 5.60059 31.7139 5.39917 31.7139 5.15747V3.15064C31.7139 2.90527 31.5161 2.70752 31.2708 2.70752Z" fill="#00BAF2"/>
<path d="M24.0564 2.70776H22.0496C21.8079 2.70776 21.6064 2.90552 21.6064 3.15088V7.30005C21.6028 7.5564 21.394 7.76147 21.1377 7.76147H20.2991C20.0391 7.76147 19.8267 7.55273 19.8267 7.29272L19.8193 3.15088C19.8193 2.90552 19.6216 2.70776 19.3762 2.70776H17.3694C17.124 2.70776 16.9263 2.90552 16.9263 3.15088V7.69556C16.9263 9.42041 18.1567 10.6545 19.8853 10.6545C19.8853 10.6545 21.1816 10.6545 21.2219 10.6619C21.4563 10.6875 21.6357 10.8853 21.6357 11.127C21.6357 11.365 21.46 11.5627 21.2256 11.592C21.2146 11.592 21.2036 11.5957 21.1926 11.5994L18.2593 11.6104C18.0139 11.6104 17.8162 11.8081 17.8162 12.0535V14.0566C17.8162 14.302 18.0139 14.4998 18.2593 14.4998H21.5369C23.2654 14.4998 24.4959 13.2693 24.4959 11.5444V3.15088C24.4995 2.90552 24.3018 2.70776 24.0564 2.70776ZM12.6453 2.71875H9.86206C9.6167 2.71875 9.41528 2.90552 9.41528 3.13257V3.9126C9.41528 3.91626 9.41528 3.92358 9.41528 3.92725C9.41528 3.93457 9.41528 3.93823 9.41528 3.94556V5.01489C9.41528 5.25659 9.62769 5.45801 9.8877 5.45801H12.5391C12.7478 5.49097 12.9126 5.64478 12.9382 5.88281V6.14282C12.9163 6.36987 12.7515 6.53467 12.55 6.55298H11.239C9.49219 6.55298 8.25073 7.71387 8.25073 9.33984V11.6726C8.25073 13.2913 9.32007 14.4412 11.0522 14.4412H14.6887C15.3406 14.4412 15.8716 13.9468 15.8716 13.3389V5.729C15.8716 3.8833 14.9194 2.71875 12.6453 2.71875ZM12.9639 11.0903V11.4053C12.9639 11.4309 12.9602 11.4565 12.9565 11.4785C12.9529 11.5005 12.9456 11.5225 12.9382 11.5444C12.876 11.7202 12.7002 11.8484 12.4915 11.8484H11.6565C11.3965 11.8484 11.1841 11.6506 11.1841 11.4053V11.0281C11.1841 11.0244 11.1841 11.0171 11.1841 11.0134V10.0063V9.69141V9.68774C11.1841 9.44605 11.3965 9.24829 11.6565 9.24829H12.4915C12.7515 9.24829 12.9639 9.44605 12.9639 9.69141V11.0903ZM4.81934 2.7041H0.435791C0.194092 2.7041 0 2.90186 0 3.13989V5.10645C0 5.11011 0 5.11377 0 5.11743C0 5.12842 0 5.13574 0 5.14307V14.0383C0 14.28 0.179443 14.4778 0.406494 14.4814H2.44995C2.69531 14.4814 2.89307 14.2837 2.89307 14.0383L2.90039 10.9915H4.81934C6.42334 10.9915 7.54395 9.87817 7.54395 8.26318V5.43604C7.54395 3.82471 6.42334 2.7041 4.81934 2.7041ZM4.64356 6.38086V7.61865C4.64356 7.87866 4.43481 8.09106 4.1748 8.09106H2.90405V5.61182H4.1748C4.43481 5.61182 4.64356 5.82056 4.64356 6.08057V6.38086Z" fill="#20336B"/>
</g>
<defs>
<clipPath id="clip0_1139_3614">
<rect y="0.437012" width="45.0037" height="14.1064" rx="4" fill="white"/>
</clipPath>
</defs>
</svg>
