<svg width="18" height="19" viewBox="0 0 18 19" fill="none" xmlns="http://www.w3.org/2000/svg">
<path d="M10.9882 0.794288C9.2684 0.388213 7.46678 0.501225 5.81118 1.11904C4.15559 1.73685 2.72036 2.83171 1.68699 4.26518C0.653622 5.69865 0.0685146 7.40635 0.00565634 9.17235C-0.0572019 10.9383 0.405012 12.6833 1.33385 14.1866C2.26269 15.6899 3.61644 16.8841 5.22392 17.618C6.83141 18.352 8.62043 18.5928 10.3648 18.31C12.1091 18.0273 13.7304 17.2336 15.0237 16.0294C16.317 14.8252 17.2242 13.2646 17.6305 11.5448C17.9004 10.4028 17.9426 9.21876 17.7549 8.0604C17.5671 6.90204 17.153 5.79201 16.5361 4.79371C15.9193 3.79541 15.1119 2.9284 14.16 2.24217C13.2081 1.55594 12.1303 1.06395 10.9882 0.794288Z" fill="#5F259F"/>
<path d="M12.9894 7.15906C12.9846 6.98924 12.9145 6.82783 12.7937 6.70838C12.6729 6.58894 12.5107 6.52065 12.3408 6.51773H11.1425L8.39831 3.36634C8.26994 3.2221 8.1032 3.11735 7.91754 3.06431C7.73189 3.01126 7.53497 3.01211 7.34978 3.06676L6.39869 3.36634C6.3649 3.37779 6.33438 3.39727 6.30974 3.42308C6.28511 3.4489 6.26709 3.4803 6.25723 3.5146C6.24737 3.5489 6.24596 3.58507 6.25312 3.62003C6.26028 3.65499 6.2758 3.6877 6.29835 3.71536L9.29559 6.5599H4.75538C4.7224 6.55844 4.68948 6.56389 4.65873 6.57589C4.62797 6.58789 4.60007 6.60618 4.57679 6.62959C4.55352 6.653 4.53539 6.68101 4.52357 6.71184C4.51175 6.74266 4.5065 6.77561 4.50815 6.80858V7.30739C4.51114 7.47848 4.58044 7.64172 4.70143 7.76272C4.82243 7.88371 4.98567 7.953 5.15675 7.95599H5.85626V10.3526C5.85626 12.1486 6.80443 13.1972 8.40122 13.1972C8.87939 13.2118 9.35537 13.1267 9.79876 12.947V14.5467C9.7974 14.6519 9.81711 14.7564 9.85675 14.8539C9.89639 14.9513 9.95515 15.0399 10.0296 15.1143C10.104 15.1887 10.1925 15.2475 10.29 15.2871C10.3875 15.3268 10.4919 15.3465 10.5972 15.3451H11.2952C11.3729 15.3397 11.446 15.3064 11.501 15.2513C11.5561 15.1963 11.5894 15.1232 11.5948 15.0455V7.908H12.7393C12.7726 7.9099 12.806 7.90473 12.8372 7.89283C12.8684 7.88093 12.8968 7.86257 12.9204 7.83896C12.944 7.81534 12.9623 7.787 12.9742 7.75579C12.9861 7.72458 12.9913 7.69122 12.9894 7.65787V7.15906ZM9.79004 11.4506C9.47528 11.5883 9.13446 11.6562 8.79096 11.6498C7.99257 11.6498 7.5941 11.2514 7.5941 10.3526V7.95745H9.79004V11.4506Z" fill="white"/>
</svg>
