<svg width="286" height="286" viewBox="0 0 286 286" fill="none" xmlns="http://www.w3.org/2000/svg">
<path d="M78.135 0.297363H69.4863V8.94601H78.135V0.297363Z" fill="black"/>
<path d="M104.081 0.297363H95.4326V8.94601H104.081V0.297363Z" fill="black"/>
<path d="M121.379 0.297363H112.73V8.94601H121.379V0.297363Z" fill="black"/>
<path d="M147.324 0.297363H138.676V8.94601H147.324V0.297363Z" fill="black"/>
<path d="M155.973 0.297363H147.324V8.94601H155.973V0.297363Z" fill="black"/>
<path d="M173.27 0.297363H164.622V8.94601H173.27V0.297363Z" fill="black"/>
<path d="M181.919 0.297363H173.271V8.94601H181.919V0.297363Z" fill="black"/>
<path d="M190.568 0.297363H181.919V8.94601H190.568V0.297363Z" fill="black"/>
<path d="M207.865 0.297363H199.216V8.94601H207.865V0.297363Z" fill="black"/>
<path d="M78.135 8.9458H69.4863V17.5944H78.135V8.9458Z" fill="black"/>
<path d="M95.4323 8.9458H86.7837V17.5944H95.4323V8.9458Z" fill="black"/>
<path d="M112.73 8.9458H104.081V17.5944H112.73V8.9458Z" fill="black"/>
<path d="M121.379 8.9458H112.73V17.5944H121.379V8.9458Z" fill="black"/>
<path d="M147.324 8.9458H138.676V17.5944H147.324V8.9458Z" fill="black"/>
<path d="M164.622 8.9458H155.973V17.5944H164.622V8.9458Z" fill="black"/>
<path d="M207.865 8.9458H199.216V17.5944H207.865V8.9458Z" fill="black"/>
<path d="M86.7839 17.5947H78.1353V26.2434H86.7839V17.5947Z" fill="black"/>
<path d="M95.4323 17.5947H86.7837V26.2434H95.4323V17.5947Z" fill="black"/>
<path d="M104.081 17.5947H95.4326V26.2434H104.081V17.5947Z" fill="black"/>
<path d="M112.73 17.5947H104.081V26.2434H112.73V17.5947Z" fill="black"/>
<path d="M155.973 17.5947H147.324V26.2434H155.973V17.5947Z" fill="black"/>
<path d="M173.27 17.5947H164.622V26.2434H173.27V17.5947Z" fill="black"/>
<path d="M181.919 17.5947H173.271V26.2434H181.919V17.5947Z" fill="black"/>
<path d="M199.216 17.5947H190.567V26.2434H199.216V17.5947Z" fill="black"/>
<path d="M207.865 17.5947H199.216V26.2434H207.865V17.5947Z" fill="black"/>
<path d="M78.135 26.2432H69.4863V34.8918H78.135V26.2432Z" fill="black"/>
<path d="M86.7839 26.2432H78.1353V34.8918H86.7839V26.2432Z" fill="black"/>
<path d="M104.081 26.2432H95.4326V34.8918H104.081V26.2432Z" fill="black"/>
<path d="M130.027 26.2432H121.378V34.8918H130.027V26.2432Z" fill="black"/>
<path d="M138.676 26.2432H130.027V34.8918H138.676V26.2432Z" fill="black"/>
<path d="M147.324 26.2432H138.676V34.8918H147.324V26.2432Z" fill="black"/>
<path d="M181.919 26.2432H173.271V34.8918H181.919V26.2432Z" fill="black"/>
<path d="M86.7839 34.8921H78.1353V43.5407H86.7839V34.8921Z" fill="black"/>
<path d="M130.027 34.8921H121.378V43.5407H130.027V34.8921Z" fill="black"/>
<path d="M155.973 34.8921H147.324V43.5407H155.973V34.8921Z" fill="black"/>
<path d="M181.919 34.8921H173.271V43.5407H181.919V34.8921Z" fill="black"/>
<path d="M199.216 34.8921H190.567V43.5407H199.216V34.8921Z" fill="black"/>
<path d="M104.081 43.5405H95.4326V52.1892H104.081V43.5405Z" fill="black"/>
<path d="M112.73 43.5405H104.081V52.1892H112.73V43.5405Z" fill="black"/>
<path d="M121.379 43.5405H112.73V52.1892H121.379V43.5405Z" fill="black"/>
<path d="M130.027 43.5405H121.378V52.1892H130.027V43.5405Z" fill="black"/>
<path d="M155.973 43.5405H147.324V52.1892H155.973V43.5405Z" fill="black"/>
<path d="M173.27 43.5405H164.622V52.1892H173.27V43.5405Z" fill="black"/>
<path d="M181.919 43.5405H173.271V52.1892H181.919V43.5405Z" fill="black"/>
<path d="M199.216 43.5405H190.567V52.1892H199.216V43.5405Z" fill="black"/>
<path d="M78.135 52.1895H69.4863V60.8381H78.135V52.1895Z" fill="black"/>
<path d="M95.4323 52.1895H86.7837V60.8381H95.4323V52.1895Z" fill="black"/>
<path d="M112.73 52.1895H104.081V60.8381H112.73V52.1895Z" fill="black"/>
<path d="M130.027 52.1895H121.378V60.8381H130.027V52.1895Z" fill="black"/>
<path d="M147.324 52.1895H138.676V60.8381H147.324V52.1895Z" fill="black"/>
<path d="M164.622 52.1895H155.973V60.8381H164.622V52.1895Z" fill="black"/>
<path d="M181.919 52.1895H173.271V60.8381H181.919V52.1895Z" fill="black"/>
<path d="M199.216 52.1895H190.567V60.8381H199.216V52.1895Z" fill="black"/>
<path d="M216.513 52.1895H207.865V60.8381H216.513V52.1895Z" fill="black"/>
<path d="M78.135 60.8379H69.4863V69.4865H78.135V60.8379Z" fill="black"/>
<path d="M86.7839 60.8379H78.1353V69.4865H86.7839V60.8379Z" fill="black"/>
<path d="M95.4323 60.8379H86.7837V69.4865H95.4323V60.8379Z" fill="black"/>
<path d="M130.027 60.8379H121.378V69.4865H130.027V60.8379Z" fill="black"/>
<path d="M155.973 60.8379H147.324V69.4865H155.973V60.8379Z" fill="black"/>
<path d="M164.622 60.8379H155.973V69.4865H164.622V60.8379Z" fill="black"/>
<path d="M181.919 60.8379H173.271V69.4865H181.919V60.8379Z" fill="black"/>
<path d="M199.216 60.8379H190.567V69.4865H199.216V60.8379Z" fill="black"/>
<path d="M8.94601 69.4863H0.297363V78.135H8.94601V69.4863Z" fill="black"/>
<path d="M26.2434 69.4863H17.5947V78.135H26.2434V69.4863Z" fill="black"/>
<path d="M34.8918 69.4863H26.2432V78.135H34.8918V69.4863Z" fill="black"/>
<path d="M52.1892 69.4863H43.5405V78.135H52.1892V69.4863Z" fill="black"/>
<path d="M60.8381 69.4863H52.1895V78.135H60.8381V69.4863Z" fill="black"/>
<path d="M69.4865 69.4863H60.8379V78.135H69.4865V69.4863Z" fill="black"/>
<path d="M86.7839 69.4863H78.1353V78.135H86.7839V69.4863Z" fill="black"/>
<path d="M112.73 69.4863H104.081V78.135H112.73V69.4863Z" fill="black"/>
<path d="M130.027 69.4863H121.378V78.135H130.027V69.4863Z" fill="black"/>
<path d="M147.324 69.4863H138.676V78.135H147.324V69.4863Z" fill="black"/>
<path d="M155.973 69.4863H147.324V78.135H155.973V69.4863Z" fill="black"/>
<path d="M164.622 69.4863H155.973V78.135H164.622V69.4863Z" fill="black"/>
<path d="M173.27 69.4863H164.622V78.135H173.27V69.4863Z" fill="black"/>
<path d="M181.919 69.4863H173.271V78.135H181.919V69.4863Z" fill="black"/>
<path d="M190.568 69.4863H181.919V78.135H190.568V69.4863Z" fill="black"/>
<path d="M233.811 69.4863H225.162V78.135H233.811V69.4863Z" fill="black"/>
<path d="M259.757 69.4863H251.108V78.135H259.757V69.4863Z" fill="black"/>
<path d="M277.054 69.4863H268.405V78.135H277.054V69.4863Z" fill="black"/>
<path d="M285.703 69.4863H277.054V78.135H285.703V69.4863Z" fill="black"/>
<path d="M8.94601 78.1353H0.297363V86.7839H8.94601V78.1353Z" fill="black"/>
<path d="M17.5944 78.1353H8.9458V86.7839H17.5944V78.1353Z" fill="black"/>
<path d="M34.8918 78.1353H26.2432V86.7839H34.8918V78.1353Z" fill="black"/>
<path d="M52.1892 78.1353H43.5405V86.7839H52.1892V78.1353Z" fill="black"/>
<path d="M78.135 78.1353H69.4863V86.7839H78.135V78.1353Z" fill="black"/>
<path d="M86.7839 78.1353H78.1353V86.7839H86.7839V78.1353Z" fill="black"/>
<path d="M112.73 78.1353H104.081V86.7839H112.73V78.1353Z" fill="black"/>
<path d="M147.324 78.1353H138.676V86.7839H147.324V78.1353Z" fill="black"/>
<path d="M164.622 78.1353H155.973V86.7839H164.622V78.1353Z" fill="black"/>
<path d="M173.27 78.1353H164.622V86.7839H173.27V78.1353Z" fill="black"/>
<path d="M181.919 78.1353H173.271V86.7839H181.919V78.1353Z" fill="black"/>
<path d="M190.568 78.1353H181.919V86.7839H190.568V78.1353Z" fill="black"/>
<path d="M199.216 78.1353H190.567V86.7839H199.216V78.1353Z" fill="black"/>
<path d="M207.865 78.1353H199.216V86.7839H207.865V78.1353Z" fill="black"/>
<path d="M233.811 78.1353H225.162V86.7839H233.811V78.1353Z" fill="black"/>
<path d="M242.46 78.1353H233.811V86.7839H242.46V78.1353Z" fill="black"/>
<path d="M259.757 78.1353H251.108V86.7839H259.757V78.1353Z" fill="black"/>
<path d="M268.405 78.1353H259.757V86.7839H268.405V78.1353Z" fill="black"/>
<path d="M277.054 78.1353H268.405V86.7839H277.054V78.1353Z" fill="black"/>
<path d="M285.703 78.1353H277.054V86.7839H285.703V78.1353Z" fill="black"/>
<path d="M8.94601 86.7837H0.297363V95.4323H8.94601V86.7837Z" fill="black"/>
<path d="M17.5944 86.7837H8.9458V95.4323H17.5944V86.7837Z" fill="black"/>
<path d="M34.8918 86.7837H26.2432V95.4323H34.8918V86.7837Z" fill="black"/>
<path d="M43.5407 86.7837H34.8921V95.4323H43.5407V86.7837Z" fill="black"/>
<path d="M52.1892 86.7837H43.5405V95.4323H52.1892V86.7837Z" fill="black"/>
<path d="M60.8381 86.7837H52.1895V95.4323H60.8381V86.7837Z" fill="black"/>
<path d="M78.135 86.7837H69.4863V95.4323H78.135V86.7837Z" fill="black"/>
<path d="M104.081 86.7837H95.4326V95.4323H104.081V86.7837Z" fill="black"/>
<path d="M112.73 86.7837H104.081V95.4323H112.73V86.7837Z" fill="black"/>
<path d="M130.027 86.7837H121.378V95.4323H130.027V86.7837Z" fill="black"/>
<path d="M155.973 86.7837H147.324V95.4323H155.973V86.7837Z" fill="black"/>
<path d="M190.568 86.7837H181.919V95.4323H190.568V86.7837Z" fill="black"/>
<path d="M207.865 86.7837H199.216V95.4323H207.865V86.7837Z" fill="black"/>
<path d="M216.513 86.7837H207.865V95.4323H216.513V86.7837Z" fill="black"/>
<path d="M225.162 86.7837H216.514V95.4323H225.162V86.7837Z" fill="black"/>
<path d="M233.811 86.7837H225.162V95.4323H233.811V86.7837Z" fill="black"/>
<path d="M242.46 86.7837H233.811V95.4323H242.46V86.7837Z" fill="black"/>
<path d="M251.108 86.7837H242.459V95.4323H251.108V86.7837Z" fill="black"/>
<path d="M259.757 86.7837H251.108V95.4323H259.757V86.7837Z" fill="black"/>
<path d="M277.054 86.7837H268.405V95.4323H277.054V86.7837Z" fill="black"/>
<path d="M285.703 86.7837H277.054V95.4323H285.703V86.7837Z" fill="black"/>
<path d="M26.2434 95.4326H17.5947V104.081H26.2434V95.4326Z" fill="black"/>
<path d="M34.8918 95.4326H26.2432V104.081H34.8918V95.4326Z" fill="black"/>
<path d="M95.4323 95.4326H86.7837V104.081H95.4323V95.4326Z" fill="black"/>
<path d="M112.73 95.4326H104.081V104.081H112.73V95.4326Z" fill="black"/>
<path d="M121.379 95.4326H112.73V104.081H121.379V95.4326Z" fill="black"/>
<path d="M130.027 95.4326H121.378V104.081H130.027V95.4326Z" fill="black"/>
<path d="M147.324 95.4326H138.676V104.081H147.324V95.4326Z" fill="black"/>
<path d="M164.622 95.4326H155.973V104.081H164.622V95.4326Z" fill="black"/>
<path d="M181.919 95.4326H173.271V104.081H181.919V95.4326Z" fill="black"/>
<path d="M199.216 95.4326H190.567V104.081H199.216V95.4326Z" fill="black"/>
<path d="M225.162 95.4326H216.514V104.081H225.162V95.4326Z" fill="black"/>
<path d="M242.46 95.4326H233.811V104.081H242.46V95.4326Z" fill="black"/>
<path d="M259.757 95.4326H251.108V104.081H259.757V95.4326Z" fill="black"/>
<path d="M26.2434 104.081H17.5947V112.73H26.2434V104.081Z" fill="black"/>
<path d="M34.8918 104.081H26.2432V112.73H34.8918V104.081Z" fill="black"/>
<path d="M43.5407 104.081H34.8921V112.73H43.5407V104.081Z" fill="black"/>
<path d="M52.1892 104.081H43.5405V112.73H52.1892V104.081Z" fill="black"/>
<path d="M60.8381 104.081H52.1895V112.73H60.8381V104.081Z" fill="black"/>
<path d="M69.4865 104.081H60.8379V112.73H69.4865V104.081Z" fill="black"/>
<path d="M78.135 104.081H69.4863V112.73H78.135V104.081Z" fill="black"/>
<path d="M104.081 104.081H95.4326V112.73H104.081V104.081Z" fill="black"/>
<path d="M112.73 104.081H104.081V112.73H112.73V104.081Z" fill="black"/>
<path d="M164.622 104.081H155.973V112.73H164.622V104.081Z" fill="black"/>
<path d="M173.27 104.081H164.622V112.73H173.27V104.081Z" fill="black"/>
<path d="M225.162 104.081H216.514V112.73H225.162V104.081Z" fill="black"/>
<path d="M251.108 104.081H242.459V112.73H251.108V104.081Z" fill="black"/>
<path d="M259.757 104.081H251.108V112.73H259.757V104.081Z" fill="black"/>
<path d="M285.703 104.081H277.054V112.73H285.703V104.081Z" fill="black"/>
<path d="M78.135 112.73H69.4863V121.379H78.135V112.73Z" fill="black"/>
<path d="M86.7839 112.73H78.1353V121.379H86.7839V112.73Z" fill="black"/>
<path d="M104.081 112.73H95.4326V121.379H104.081V112.73Z" fill="black"/>
<path d="M121.379 112.73H112.73V121.379H121.379V112.73Z" fill="black"/>
<path d="M147.324 112.73H138.676V121.379H147.324V112.73Z" fill="black"/>
<path d="M155.973 112.73H147.324V121.379H155.973V112.73Z" fill="black"/>
<path d="M164.622 112.73H155.973V121.379H164.622V112.73Z" fill="black"/>
<path d="M190.568 112.73H181.919V121.379H190.568V112.73Z" fill="black"/>
<path d="M199.216 112.73H190.567V121.379H199.216V112.73Z" fill="black"/>
<path d="M242.46 112.73H233.811V121.379H242.46V112.73Z" fill="black"/>
<path d="M277.054 112.73H268.405V121.379H277.054V112.73Z" fill="black"/>
<path d="M8.94601 121.378H0.297363V130.027H8.94601V121.378Z" fill="black"/>
<path d="M26.2434 121.378H17.5947V130.027H26.2434V121.378Z" fill="black"/>
<path d="M43.5407 121.378H34.8921V130.027H43.5407V121.378Z" fill="black"/>
<path d="M52.1892 121.378H43.5405V130.027H52.1892V121.378Z" fill="black"/>
<path d="M60.8381 121.378H52.1895V130.027H60.8381V121.378Z" fill="black"/>
<path d="M69.4865 121.378H60.8379V130.027H69.4865V121.378Z" fill="black"/>
<path d="M95.4323 121.378H86.7837V130.027H95.4323V121.378Z" fill="black"/>
<path d="M138.676 121.378H130.027V130.027H138.676V121.378Z" fill="black"/>
<path d="M147.324 121.378H138.676V130.027H147.324V121.378Z" fill="black"/>
<path d="M164.622 121.378H155.973V130.027H164.622V121.378Z" fill="black"/>
<path d="M199.216 121.378H190.567V130.027H199.216V121.378Z" fill="black"/>
<path d="M216.513 121.378H207.865V130.027H216.513V121.378Z" fill="black"/>
<path d="M233.811 121.378H225.162V130.027H233.811V121.378Z" fill="black"/>
<path d="M8.94601 130.027H0.297363V138.676H8.94601V130.027Z" fill="black"/>
<path d="M17.5944 130.027H8.9458V138.676H17.5944V130.027Z" fill="black"/>
<path d="M26.2434 130.027H17.5947V138.676H26.2434V130.027Z" fill="black"/>
<path d="M34.8918 130.027H26.2432V138.676H34.8918V130.027Z" fill="black"/>
<path d="M69.4865 130.027H60.8379V138.676H69.4865V130.027Z" fill="black"/>
<path d="M78.135 130.027H69.4863V138.676H78.135V130.027Z" fill="black"/>
<path d="M112.73 130.027H104.081V138.676H112.73V130.027Z" fill="black"/>
<path d="M147.324 130.027H138.676V138.676H147.324V130.027Z" fill="black"/>
<path d="M173.27 130.027H164.622V138.676H173.27V130.027Z" fill="black"/>
<path d="M181.919 130.027H173.271V138.676H181.919V130.027Z" fill="black"/>
<path d="M190.568 130.027H181.919V138.676H190.568V130.027Z" fill="black"/>
<path d="M199.216 130.027H190.567V138.676H199.216V130.027Z" fill="black"/>
<path d="M225.162 130.027H216.514V138.676H225.162V130.027Z" fill="black"/>
<path d="M233.811 130.027H225.162V138.676H233.811V130.027Z" fill="black"/>
<path d="M242.46 130.027H233.811V138.676H242.46V130.027Z" fill="black"/>
<path d="M259.757 130.027H251.108V138.676H259.757V130.027Z" fill="black"/>
<path d="M268.405 130.027H259.757V138.676H268.405V130.027Z" fill="black"/>
<path d="M8.94601 138.676H0.297363V147.324H8.94601V138.676Z" fill="black"/>
<path d="M34.8918 138.676H26.2432V147.324H34.8918V138.676Z" fill="black"/>
<path d="M60.8381 138.676H52.1895V147.324H60.8381V138.676Z" fill="black"/>
<path d="M69.4865 138.676H60.8379V147.324H69.4865V138.676Z" fill="black"/>
<path d="M86.7839 138.676H78.1353V147.324H86.7839V138.676Z" fill="black"/>
<path d="M104.081 138.676H95.4326V147.324H104.081V138.676Z" fill="black"/>
<path d="M112.73 138.676H104.081V147.324H112.73V138.676Z" fill="black"/>
<path d="M130.027 138.676H121.378V147.324H130.027V138.676Z" fill="black"/>
<path d="M138.676 138.676H130.027V147.324H138.676V138.676Z" fill="black"/>
<path d="M164.622 138.676H155.973V147.324H164.622V138.676Z" fill="black"/>
<path d="M173.27 138.676H164.622V147.324H173.27V138.676Z" fill="black"/>
<path d="M181.919 138.676H173.271V147.324H181.919V138.676Z" fill="black"/>
<path d="M190.568 138.676H181.919V147.324H190.568V138.676Z" fill="black"/>
<path d="M225.162 138.676H216.514V147.324H225.162V138.676Z" fill="black"/>
<path d="M233.811 138.676H225.162V147.324H233.811V138.676Z" fill="black"/>
<path d="M251.108 138.676H242.459V147.324H251.108V138.676Z" fill="black"/>
<path d="M259.757 138.676H251.108V147.324H259.757V138.676Z" fill="black"/>
<path d="M268.405 138.676H259.757V147.324H268.405V138.676Z" fill="black"/>
<path d="M43.5407 147.324H34.8921V155.973H43.5407V147.324Z" fill="black"/>
<path d="M52.1892 147.324H43.5405V155.973H52.1892V147.324Z" fill="black"/>
<path d="M86.7839 147.324H78.1353V155.973H86.7839V147.324Z" fill="black"/>
<path d="M121.379 147.324H112.73V155.973H121.379V147.324Z" fill="black"/>
<path d="M130.027 147.324H121.378V155.973H130.027V147.324Z" fill="black"/>
<path d="M138.676 147.324H130.027V155.973H138.676V147.324Z" fill="black"/>
<path d="M155.973 147.324H147.324V155.973H155.973V147.324Z" fill="black"/>
<path d="M164.622 147.324H155.973V155.973H164.622V147.324Z" fill="black"/>
<path d="M199.216 147.324H190.567V155.973H199.216V147.324Z" fill="black"/>
<path d="M207.865 147.324H199.216V155.973H207.865V147.324Z" fill="black"/>
<path d="M216.513 147.324H207.865V155.973H216.513V147.324Z" fill="black"/>
<path d="M233.811 147.324H225.162V155.973H233.811V147.324Z" fill="black"/>
<path d="M251.108 147.324H242.459V155.973H251.108V147.324Z" fill="black"/>
<path d="M259.757 147.324H251.108V155.973H259.757V147.324Z" fill="black"/>
<path d="M277.054 147.324H268.405V155.973H277.054V147.324Z" fill="black"/>
<path d="M285.703 147.324H277.054V155.973H285.703V147.324Z" fill="black"/>
<path d="M34.8918 155.973H26.2432V164.622H34.8918V155.973Z" fill="black"/>
<path d="M43.5407 155.973H34.8921V164.622H43.5407V155.973Z" fill="black"/>
<path d="M60.8381 155.973H52.1895V164.622H60.8381V155.973Z" fill="black"/>
<path d="M69.4865 155.973H60.8379V164.622H69.4865V155.973Z" fill="black"/>
<path d="M78.135 155.973H69.4863V164.622H78.135V155.973Z" fill="black"/>
<path d="M121.379 155.973H112.73V164.622H121.379V155.973Z" fill="black"/>
<path d="M138.676 155.973H130.027V164.622H138.676V155.973Z" fill="black"/>
<path d="M155.973 155.973H147.324V164.622H155.973V155.973Z" fill="black"/>
<path d="M181.919 155.973H173.271V164.622H181.919V155.973Z" fill="black"/>
<path d="M216.513 155.973H207.865V164.622H216.513V155.973Z" fill="black"/>
<path d="M233.811 155.973H225.162V164.622H233.811V155.973Z" fill="black"/>
<path d="M242.46 155.973H233.811V164.622H242.46V155.973Z" fill="black"/>
<path d="M251.108 155.973H242.459V164.622H251.108V155.973Z" fill="black"/>
<path d="M268.405 155.973H259.757V164.622H268.405V155.973Z" fill="black"/>
<path d="M277.054 155.973H268.405V164.622H277.054V155.973Z" fill="black"/>
<path d="M8.94601 164.622H0.297363V173.27H8.94601V164.622Z" fill="black"/>
<path d="M34.8918 164.622H26.2432V173.27H34.8918V164.622Z" fill="black"/>
<path d="M86.7839 164.622H78.1353V173.27H86.7839V164.622Z" fill="black"/>
<path d="M147.324 164.622H138.676V173.27H147.324V164.622Z" fill="black"/>
<path d="M207.865 164.622H199.216V173.27H207.865V164.622Z" fill="black"/>
<path d="M225.162 164.622H216.514V173.27H225.162V164.622Z" fill="black"/>
<path d="M233.811 164.622H225.162V173.27H233.811V164.622Z" fill="black"/>
<path d="M251.108 164.622H242.459V173.27H251.108V164.622Z" fill="black"/>
<path d="M277.054 164.622H268.405V173.27H277.054V164.622Z" fill="black"/>
<path d="M17.5944 173.271H8.9458V181.919H17.5944V173.271Z" fill="black"/>
<path d="M43.5407 173.271H34.8921V181.919H43.5407V173.271Z" fill="black"/>
<path d="M60.8381 173.271H52.1895V181.919H60.8381V173.271Z" fill="black"/>
<path d="M86.7839 173.271H78.1353V181.919H86.7839V173.271Z" fill="black"/>
<path d="M121.379 173.271H112.73V181.919H121.379V173.271Z" fill="black"/>
<path d="M130.027 173.271H121.378V181.919H130.027V173.271Z" fill="black"/>
<path d="M164.622 173.271H155.973V181.919H164.622V173.271Z" fill="black"/>
<path d="M190.568 173.271H181.919V181.919H190.568V173.271Z" fill="black"/>
<path d="M199.216 173.271H190.567V181.919H199.216V173.271Z" fill="black"/>
<path d="M207.865 173.271H199.216V181.919H207.865V173.271Z" fill="black"/>
<path d="M242.46 173.271H233.811V181.919H242.46V173.271Z" fill="black"/>
<path d="M259.757 173.271H251.108V181.919H259.757V173.271Z" fill="black"/>
<path d="M268.405 173.271H259.757V181.919H268.405V173.271Z" fill="black"/>
<path d="M8.94601 181.919H0.297363V190.568H8.94601V181.919Z" fill="black"/>
<path d="M17.5944 181.919H8.9458V190.568H17.5944V181.919Z" fill="black"/>
<path d="M26.2434 181.919H17.5947V190.568H26.2434V181.919Z" fill="black"/>
<path d="M69.4865 181.919H60.8379V190.568H69.4865V181.919Z" fill="black"/>
<path d="M78.135 181.919H69.4863V190.568H78.135V181.919Z" fill="black"/>
<path d="M95.4323 181.919H86.7837V190.568H95.4323V181.919Z" fill="black"/>
<path d="M104.081 181.919H95.4326V190.568H104.081V181.919Z" fill="black"/>
<path d="M130.027 181.919H121.378V190.568H130.027V181.919Z" fill="black"/>
<path d="M138.676 181.919H130.027V190.568H138.676V181.919Z" fill="black"/>
<path d="M164.622 181.919H155.973V190.568H164.622V181.919Z" fill="black"/>
<path d="M199.216 181.919H190.567V190.568H199.216V181.919Z" fill="black"/>
<path d="M207.865 181.919H199.216V190.568H207.865V181.919Z" fill="black"/>
<path d="M216.513 181.919H207.865V190.568H216.513V181.919Z" fill="black"/>
<path d="M225.162 181.919H216.514V190.568H225.162V181.919Z" fill="black"/>
<path d="M233.811 181.919H225.162V190.568H233.811V181.919Z" fill="black"/>
<path d="M268.405 181.919H259.757V190.568H268.405V181.919Z" fill="black"/>
<path d="M285.703 181.919H277.054V190.568H285.703V181.919Z" fill="black"/>
<path d="M26.2434 190.567H17.5947V199.216H26.2434V190.567Z" fill="black"/>
<path d="M60.8381 190.567H52.1895V199.216H60.8381V190.567Z" fill="black"/>
<path d="M78.135 190.567H69.4863V199.216H78.135V190.567Z" fill="black"/>
<path d="M121.379 190.567H112.73V199.216H121.379V190.567Z" fill="black"/>
<path d="M147.324 190.567H138.676V199.216H147.324V190.567Z" fill="black"/>
<path d="M190.568 190.567H181.919V199.216H190.568V190.567Z" fill="black"/>
<path d="M199.216 190.567H190.567V199.216H199.216V190.567Z" fill="black"/>
<path d="M207.865 190.567H199.216V199.216H207.865V190.567Z" fill="black"/>
<path d="M233.811 190.567H225.162V199.216H233.811V190.567Z" fill="black"/>
<path d="M242.46 190.567H233.811V199.216H242.46V190.567Z" fill="black"/>
<path d="M277.054 190.567H268.405V199.216H277.054V190.567Z" fill="black"/>
<path d="M285.703 190.567H277.054V199.216H285.703V190.567Z" fill="black"/>
<path d="M17.5944 199.216H8.9458V207.865H17.5944V199.216Z" fill="black"/>
<path d="M26.2434 199.216H17.5947V207.865H26.2434V199.216Z" fill="black"/>
<path d="M52.1892 199.216H43.5405V207.865H52.1892V199.216Z" fill="black"/>
<path d="M69.4865 199.216H60.8379V207.865H69.4865V199.216Z" fill="black"/>
<path d="M86.7839 199.216H78.1353V207.865H86.7839V199.216Z" fill="black"/>
<path d="M95.4323 199.216H86.7837V207.865H95.4323V199.216Z" fill="black"/>
<path d="M121.379 199.216H112.73V207.865H121.379V199.216Z" fill="black"/>
<path d="M147.324 199.216H138.676V207.865H147.324V199.216Z" fill="black"/>
<path d="M181.919 199.216H173.271V207.865H181.919V199.216Z" fill="black"/>
<path d="M199.216 199.216H190.567V207.865H199.216V199.216Z" fill="black"/>
<path d="M216.513 199.216H207.865V207.865H216.513V199.216Z" fill="black"/>
<path d="M225.162 199.216H216.514V207.865H225.162V199.216Z" fill="black"/>
<path d="M251.108 199.216H242.459V207.865H251.108V199.216Z" fill="black"/>
<path d="M259.757 199.216H251.108V207.865H259.757V199.216Z" fill="black"/>
<path d="M277.054 199.216H268.405V207.865H277.054V199.216Z" fill="black"/>
<path d="M285.703 199.216H277.054V207.865H285.703V199.216Z" fill="black"/>
<path d="M8.94601 207.865H0.297363V216.513H8.94601V207.865Z" fill="black"/>
<path d="M34.8918 207.865H26.2432V216.513H34.8918V207.865Z" fill="black"/>
<path d="M60.8381 207.865H52.1895V216.513H60.8381V207.865Z" fill="black"/>
<path d="M69.4865 207.865H60.8379V216.513H69.4865V207.865Z" fill="black"/>
<path d="M104.081 207.865H95.4326V216.513H104.081V207.865Z" fill="black"/>
<path d="M121.379 207.865H112.73V216.513H121.379V207.865Z" fill="black"/>
<path d="M138.676 207.865H130.027V216.513H138.676V207.865Z" fill="black"/>
<path d="M147.324 207.865H138.676V216.513H147.324V207.865Z" fill="black"/>
<path d="M155.973 207.865H147.324V216.513H155.973V207.865Z" fill="black"/>
<path d="M173.27 207.865H164.622V216.513H173.27V207.865Z" fill="black"/>
<path d="M199.216 207.865H190.567V216.513H199.216V207.865Z" fill="black"/>
<path d="M216.513 207.865H207.865V216.513H216.513V207.865Z" fill="black"/>
<path d="M225.162 207.865H216.514V216.513H225.162V207.865Z" fill="black"/>
<path d="M233.811 207.865H225.162V216.513H233.811V207.865Z" fill="black"/>
<path d="M242.46 207.865H233.811V216.513H242.46V207.865Z" fill="black"/>
<path d="M251.108 207.865H242.459V216.513H251.108V207.865Z" fill="black"/>
<path d="M78.135 216.514H69.4863V225.162H78.135V216.514Z" fill="black"/>
<path d="M104.081 216.514H95.4326V225.162H104.081V216.514Z" fill="black"/>
<path d="M112.73 216.514H104.081V225.162H112.73V216.514Z" fill="black"/>
<path d="M121.379 216.514H112.73V225.162H121.379V216.514Z" fill="black"/>
<path d="M130.027 216.514H121.378V225.162H130.027V216.514Z" fill="black"/>
<path d="M138.676 216.514H130.027V225.162H138.676V216.514Z" fill="black"/>
<path d="M147.324 216.514H138.676V225.162H147.324V216.514Z" fill="black"/>
<path d="M155.973 216.514H147.324V225.162H155.973V216.514Z" fill="black"/>
<path d="M164.622 216.514H155.973V225.162H164.622V216.514Z" fill="black"/>
<path d="M173.27 216.514H164.622V225.162H173.27V216.514Z" fill="black"/>
<path d="M216.513 216.514H207.865V225.162H216.513V216.514Z" fill="black"/>
<path d="M251.108 216.514H242.459V225.162H251.108V216.514Z" fill="black"/>
<path d="M259.757 216.514H251.108V225.162H259.757V216.514Z" fill="black"/>
<path d="M78.135 225.162H69.4863V233.811H78.135V225.162Z" fill="black"/>
<path d="M104.081 225.162H95.4326V233.811H104.081V225.162Z" fill="black"/>
<path d="M112.73 225.162H104.081V233.811H112.73V225.162Z" fill="black"/>
<path d="M173.27 225.162H164.622V233.811H173.27V225.162Z" fill="black"/>
<path d="M181.919 225.162H173.271V233.811H181.919V225.162Z" fill="black"/>
<path d="M207.865 225.162H199.216V233.811H207.865V225.162Z" fill="black"/>
<path d="M216.513 225.162H207.865V233.811H216.513V225.162Z" fill="black"/>
<path d="M233.811 225.162H225.162V233.811H233.811V225.162Z" fill="black"/>
<path d="M251.108 225.162H242.459V233.811H251.108V225.162Z" fill="black"/>
<path d="M78.135 233.811H69.4863V242.46H78.135V233.811Z" fill="black"/>
<path d="M86.7839 233.811H78.1353V242.46H86.7839V233.811Z" fill="black"/>
<path d="M95.4323 233.811H86.7837V242.46H95.4323V233.811Z" fill="black"/>
<path d="M104.081 233.811H95.4326V242.46H104.081V233.811Z" fill="black"/>
<path d="M112.73 233.811H104.081V242.46H112.73V233.811Z" fill="black"/>
<path d="M130.027 233.811H121.378V242.46H130.027V233.811Z" fill="black"/>
<path d="M147.324 233.811H138.676V242.46H147.324V233.811Z" fill="black"/>
<path d="M173.27 233.811H164.622V242.46H173.27V233.811Z" fill="black"/>
<path d="M181.919 233.811H173.271V242.46H181.919V233.811Z" fill="black"/>
<path d="M190.568 233.811H181.919V242.46H190.568V233.811Z" fill="black"/>
<path d="M207.865 233.811H199.216V242.46H207.865V233.811Z" fill="black"/>
<path d="M216.513 233.811H207.865V242.46H216.513V233.811Z" fill="black"/>
<path d="M251.108 233.811H242.459V242.46H251.108V233.811Z" fill="black"/>
<path d="M259.757 233.811H251.108V242.46H259.757V233.811Z" fill="black"/>
<path d="M268.405 233.811H259.757V242.46H268.405V233.811Z" fill="black"/>
<path d="M277.054 233.811H268.405V242.46H277.054V233.811Z" fill="black"/>
<path d="M95.4323 242.459H86.7837V251.108H95.4323V242.459Z" fill="black"/>
<path d="M104.081 242.459H95.4326V251.108H104.081V242.459Z" fill="black"/>
<path d="M138.676 242.459H130.027V251.108H138.676V242.459Z" fill="black"/>
<path d="M155.973 242.459H147.324V251.108H155.973V242.459Z" fill="black"/>
<path d="M173.27 242.459H164.622V251.108H173.27V242.459Z" fill="black"/>
<path d="M181.919 242.459H173.271V251.108H181.919V242.459Z" fill="black"/>
<path d="M190.568 242.459H181.919V251.108H190.568V242.459Z" fill="black"/>
<path d="M207.865 242.459H199.216V251.108H207.865V242.459Z" fill="black"/>
<path d="M216.513 242.459H207.865V251.108H216.513V242.459Z" fill="black"/>
<path d="M225.162 242.459H216.514V251.108H225.162V242.459Z" fill="black"/>
<path d="M233.811 242.459H225.162V251.108H233.811V242.459Z" fill="black"/>
<path d="M242.46 242.459H233.811V251.108H242.46V242.459Z" fill="black"/>
<path d="M251.108 242.459H242.459V251.108H251.108V242.459Z" fill="black"/>
<path d="M268.405 242.459H259.757V251.108H268.405V242.459Z" fill="black"/>
<path d="M78.135 251.108H69.4863V259.757H78.135V251.108Z" fill="black"/>
<path d="M86.7839 251.108H78.1353V259.757H86.7839V251.108Z" fill="black"/>
<path d="M95.4323 251.108H86.7837V259.757H95.4323V251.108Z" fill="black"/>
<path d="M112.73 251.108H104.081V259.757H112.73V251.108Z" fill="black"/>
<path d="M130.027 251.108H121.378V259.757H130.027V251.108Z" fill="black"/>
<path d="M164.622 251.108H155.973V259.757H164.622V251.108Z" fill="black"/>
<path d="M207.865 251.108H199.216V259.757H207.865V251.108Z" fill="black"/>
<path d="M242.46 251.108H233.811V259.757H242.46V251.108Z" fill="black"/>
<path d="M259.757 251.108H251.108V259.757H259.757V251.108Z" fill="black"/>
<path d="M268.405 251.108H259.757V259.757H268.405V251.108Z" fill="black"/>
<path d="M285.703 251.108H277.054V259.757H285.703V251.108Z" fill="black"/>
<path d="M78.135 259.757H69.4863V268.405H78.135V259.757Z" fill="black"/>
<path d="M104.081 259.757H95.4326V268.405H104.081V259.757Z" fill="black"/>
<path d="M112.73 259.757H104.081V268.405H112.73V259.757Z" fill="black"/>
<path d="M130.027 259.757H121.378V268.405H130.027V259.757Z" fill="black"/>
<path d="M155.973 259.757H147.324V268.405H155.973V259.757Z" fill="black"/>
<path d="M164.622 259.757H155.973V268.405H164.622V259.757Z" fill="black"/>
<path d="M181.919 259.757H173.271V268.405H181.919V259.757Z" fill="black"/>
<path d="M233.811 259.757H225.162V268.405H233.811V259.757Z" fill="black"/>
<path d="M242.46 259.757H233.811V268.405H242.46V259.757Z" fill="black"/>
<path d="M268.405 259.757H259.757V268.405H268.405V259.757Z" fill="black"/>
<path d="M86.7839 268.405H78.1353V277.054H86.7839V268.405Z" fill="black"/>
<path d="M95.4323 268.405H86.7837V277.054H95.4323V268.405Z" fill="black"/>
<path d="M104.081 268.405H95.4326V277.054H104.081V268.405Z" fill="black"/>
<path d="M121.379 268.405H112.73V277.054H121.379V268.405Z" fill="black"/>
<path d="M138.676 268.405H130.027V277.054H138.676V268.405Z" fill="black"/>
<path d="M147.324 268.405H138.676V277.054H147.324V268.405Z" fill="black"/>
<path d="M155.973 268.405H147.324V277.054H155.973V268.405Z" fill="black"/>
<path d="M164.622 268.405H155.973V277.054H164.622V268.405Z" fill="black"/>
<path d="M181.919 268.405H173.271V277.054H181.919V268.405Z" fill="black"/>
<path d="M199.216 268.405H190.567V277.054H199.216V268.405Z" fill="black"/>
<path d="M216.513 268.405H207.865V277.054H216.513V268.405Z" fill="black"/>
<path d="M233.811 268.405H225.162V277.054H233.811V268.405Z" fill="black"/>
<path d="M242.46 268.405H233.811V277.054H242.46V268.405Z" fill="black"/>
<path d="M251.108 268.405H242.459V277.054H251.108V268.405Z" fill="black"/>
<path d="M285.703 268.405H277.054V277.054H285.703V268.405Z" fill="black"/>
<path d="M78.135 277.054H69.4863V285.703H78.135V277.054Z" fill="black"/>
<path d="M95.4323 277.054H86.7837V285.703H95.4323V277.054Z" fill="black"/>
<path d="M112.73 277.054H104.081V285.703H112.73V277.054Z" fill="black"/>
<path d="M138.676 277.054H130.027V285.703H138.676V277.054Z" fill="black"/>
<path d="M147.324 277.054H138.676V285.703H147.324V277.054Z" fill="black"/>
<path d="M155.973 277.054H147.324V285.703H155.973V277.054Z" fill="black"/>
<path d="M190.568 277.054H181.919V285.703H190.568V277.054Z" fill="black"/>
<path d="M207.865 277.054H199.216V285.703H207.865V277.054Z" fill="black"/>
<path d="M233.811 277.054H225.162V285.703H233.811V277.054Z" fill="black"/>
<path d="M251.108 277.054H242.459V285.703H251.108V277.054Z" fill="black"/>
<path d="M268.405 277.054H259.757V285.703H268.405V277.054Z" fill="black"/>
<path d="M51.7568 0.297363H9.37844H0.297363V9.37844V51.7568V60.8379H9.37844H51.7568H60.8379V51.7568V9.37844V0.297363H51.7568ZM51.7568 51.7568H9.37844V9.37844H51.7568V51.7568Z" fill="black"/>
<path d="M276.622 0.297363H234.243H225.162V9.37844V51.7568V60.8379H234.243H276.622H285.703V51.7568V9.37844V0.297363H276.622ZM276.622 51.7568H234.243V9.37844H276.622V51.7568Z" fill="black"/>
<path d="M51.7568 225.162H9.37844H0.297363V234.243V276.622V285.703H9.37844H51.7568H60.8379V276.622V234.243V225.162H51.7568ZM51.7568 276.622H9.37844V234.243H51.7568V276.622Z" fill="black"/>
<path d="M43.5407 17.5947H17.5947V43.5407H43.5407V17.5947Z" fill="black"/>
<path d="M268.405 17.5947H242.459V43.5407H268.405V17.5947Z" fill="black"/>
<path d="M43.5407 242.459H17.5947V268.405H43.5407V242.459Z" fill="black"/>
</svg>
