<svg width="25" height="25" viewBox="0 0 25 25" fill="none" xmlns="http://www.w3.org/2000/svg">
<path d="M24.5835 12.3848C24.5835 19.0122 19.2109 24.3848 12.5835 24.3848C5.95608 24.3848 0.583496 19.0122 0.583496 12.3848C0.583496 5.75735 5.95608 0.384766 12.5835 0.384766C19.2109 0.384766 24.5835 5.75735 24.5835 12.3848ZM1.94487 12.3848C1.94487 18.2603 6.70794 23.0234 12.5835 23.0234C18.459 23.0234 23.2221 18.2603 23.2221 12.3848C23.2221 6.50921 18.459 1.74614 12.5835 1.74614C6.70794 1.74614 1.94487 6.50921 1.94487 12.3848Z" fill="black"/>
<path d="M2.54736 16.0104L7.27556 11.2822L11.7012 14.9822L17.632 9.05141H14.5833V7.71808H19.9166V13.0514H18.5833V10.0283L11.7576 16.8206L7.39096 13.0873L3.14993 17.3283L2.54736 16.0104Z" fill="black"/>
</svg>
