<svg width="46" height="29" viewBox="0 0 46 29" fill="none" xmlns="http://www.w3.org/2000/svg">
<path fill-rule="evenodd" clip-rule="evenodd" d="M42.125 0.0625003C39.875 0.0625005 16.0533 0.0624996 2.75 0.0625003C1.625 0.0625003 0.5 1.1825 0.5 2.3025C0.5 9.03617 0.5 22.4625 0.5 24.7025C0.5 26.9425 1.625 28.0625 3.875 28.0625C16.4253 28.0625 39.875 28.0625 42.125 28.0625C44.375 28.0625 45.5 26.9425 45.5 24.7025C45.5 22.4625 45.5 10.8626 45.5 3.4225C45.5 1.1825 44.375 0.0625003 42.125 0.0625003Z" fill="#F4F4F4"/>
<path opacity="0.9375" fill-rule="evenodd" clip-rule="evenodd" d="M7.71381 16.0671C7.6835 16.0473 7.89185 15.2486 8.38861 13.4803C8.78387 12.0733 9.15559 10.7572 9.21467 10.5555L9.32209 10.189L10.8751 10.2172C12.6907 10.2502 12.9702 10.274 13.2622 10.4211C13.78 10.6818 13.9225 11.0829 13.7441 11.7771C13.5921 12.3683 13.3018 12.7708 12.7405 13.1682C12.634 13.2436 12.541 13.3357 12.5338 13.3729C12.5258 13.4143 12.5921 13.5054 12.7041 13.6068C12.805 13.6982 12.9122 13.8204 12.9424 13.8785C13.0236 14.0348 13.0095 14.3479 12.8968 14.8907C12.8416 15.1568 12.786 15.537 12.7733 15.7357L12.7503 16.097H11.9986C11.4662 16.097 11.2331 16.0833 11.1997 16.0501C11.1264 15.9771 11.143 15.7909 11.2704 15.2573C11.4122 14.6634 11.4207 14.4304 11.3062 14.2854C11.1548 14.0939 11.0175 14.0525 10.4741 14.0344C10.0356 14.0198 9.96247 14.0264 9.89597 14.0863C9.79256 14.1794 9.70862 14.4199 9.4634 15.3257L9.25457 16.097L8.50611 16.0964C8.09446 16.0961 7.73793 16.0829 7.71381 16.0671ZM11.6651 12.7535C12.022 12.648 12.1724 12.4163 12.1729 11.9712C12.173 11.8373 12.1502 11.743 12.1044 11.6879C11.9961 11.5577 11.6698 11.5135 11.0577 11.5461L10.5256 11.5745L10.4481 11.8341C10.3285 12.2351 10.2446 12.6227 10.2577 12.7141C10.2662 12.7738 10.3077 12.8042 10.4069 12.8236C10.6242 12.866 11.4376 12.8207 11.6651 12.7535Z" fill="#265797"/>
<path opacity="0.9375" fill-rule="evenodd" clip-rule="evenodd" d="M14.1825 16.1816C13.9448 16.097 13.7579 15.939 13.6794 15.7564C13.5301 15.4093 13.6674 14.6376 14.2123 12.7605C14.3428 12.3109 14.4496 11.9387 14.4496 11.9333C14.4496 11.9279 14.4773 11.8959 14.5112 11.8622C14.5616 11.8121 14.6765 11.8008 15.1367 11.8008C15.4467 11.8008 15.7443 11.8174 15.798 11.8377L15.8955 11.8746L15.7982 12.2185C15.5595 13.0617 15.312 14.0846 15.2692 14.4045C15.2303 14.695 15.2318 14.7722 15.2781 14.8684C15.3835 15.0872 15.7662 15.1335 16.0918 14.9668C16.4738 14.7713 16.5455 14.6039 17.1596 12.4726C17.2496 12.1601 17.3183 11.9977 17.3949 11.9161L17.5032 11.8008H18.1166C18.5911 11.8008 18.7346 11.8126 18.7501 11.8528C18.7655 11.8926 17.9859 14.7809 17.6573 15.9016L17.6058 16.0774L16.9499 16.0969C16.5892 16.1076 16.2941 16.1055 16.2942 16.092C16.2942 16.0786 16.321 15.9922 16.3537 15.9C16.4863 15.526 16.3209 15.5025 15.8379 15.8268C15.3607 16.1473 15.1606 16.2232 14.7473 16.2406C14.468 16.2524 14.3456 16.2396 14.1825 16.1816Z" fill="#265797"/>
<path opacity="0.9375" fill-rule="evenodd" clip-rule="evenodd" d="M18.5429 16.066C18.508 16.0439 18.7099 15.2688 19.3083 13.1276L20.1211 10.2192L21.4947 10.2307C23.2082 10.245 23.5586 10.2752 23.8898 10.4375C24.1622 10.5709 24.2919 10.6903 24.4132 10.919C24.6169 11.3034 24.6135 11.7492 24.4022 12.3609C24.0774 13.3011 23.4712 13.9193 22.672 14.1252C22.5425 14.1586 22.1363 14.2037 21.7693 14.2255C20.557 14.2976 20.6299 14.284 20.565 14.4496C20.5339 14.5287 20.4128 14.9318 20.2958 15.3453L20.0831 16.0971L19.3367 16.0965C18.9261 16.0962 18.5689 16.0824 18.5429 16.066ZM22.0773 12.9356C22.4768 12.8844 22.6867 12.7618 22.82 12.5017C22.9633 12.2223 23.0011 11.9181 22.9098 11.7794C22.7854 11.5905 22.6151 11.5492 21.9732 11.5525C21.6536 11.5541 21.3764 11.5711 21.3572 11.5903C21.3132 11.6343 21.0432 12.6961 21.0432 12.8251C21.0432 12.8776 21.055 12.9323 21.0694 12.9466C21.1066 12.9836 21.7585 12.9765 22.0773 12.9356Z" fill="#265797"/>
<path opacity="0.9375" fill-rule="evenodd" clip-rule="evenodd" d="M24.3209 16.1973C23.8587 16.0047 23.739 15.6863 23.8896 15.0506C24.1001 14.162 24.5639 13.8648 26.1561 13.5983C27.1175 13.4375 27.3575 13.3199 27.4266 12.9759C27.4778 12.7214 27.2586 12.5822 26.8059 12.5818C26.5233 12.5815 26.4173 12.6225 26.1721 12.8269L25.9745 12.9917L25.4655 13.0046C24.8755 13.0197 24.6938 12.9963 24.6938 12.9054C24.6938 12.7995 24.9251 12.476 25.1415 12.2794C25.3738 12.0682 25.6813 11.9065 26.0142 11.8202C26.7134 11.6389 27.9169 11.66 28.3305 11.8607C28.5519 11.9681 28.7487 12.1466 28.8424 12.3248C28.9311 12.4936 28.8994 12.6687 28.4814 14.3178C28.2762 15.1273 28.1084 15.8586 28.1084 15.9431V16.0966H27.6232C27.3564 16.0966 27.0565 16.1077 26.9569 16.1213L26.7756 16.146L26.6959 15.9609C26.6022 15.7435 26.5912 15.7435 26.0977 15.9645C25.5617 16.2044 25.3653 16.2578 24.9489 16.2772C24.5946 16.2937 24.5335 16.2859 24.3209 16.1973ZM26.4304 15.2848C26.701 15.1657 27.0068 14.6781 27.0085 14.3627L27.0094 14.2106L26.76 14.2338C26.4842 14.2594 25.9006 14.4467 25.6868 14.5782C25.5062 14.6893 25.4004 14.8682 25.401 15.0616C25.4015 15.2471 25.4289 15.2978 25.5583 15.3527C25.7061 15.4153 26.2258 15.3749 26.4304 15.2848Z" fill="#265797"/>
<path opacity="0.9375" fill-rule="evenodd" clip-rule="evenodd" d="M28.5911 17.947C28.4339 17.9117 28.4278 17.8533 28.5372 17.4248C28.6837 16.8505 28.674 16.8625 29.0356 16.8065C29.4258 16.7462 29.6001 16.6608 29.6871 16.4875C29.7835 16.2954 29.7766 15.5415 29.6599 13.5192C29.5949 12.3939 29.5788 11.8835 29.607 11.8496C29.6368 11.8139 29.8354 11.8008 30.347 11.8008H31.0462L31.0585 13.1072C31.0668 13.9985 31.0845 14.4275 31.1143 14.4571C31.1857 14.5281 31.4483 14.0862 32.5246 12.0839L32.6767 11.8008H33.2941C33.6337 11.8008 33.9199 11.8142 33.9301 11.8307C33.9498 11.8623 33.0142 13.5218 32.0755 15.1205C30.7412 17.3927 30.4903 17.7059 29.8643 17.8794C29.66 17.9361 28.7562 17.9841 28.5911 17.947Z" fill="#265797"/>
<path fill-rule="evenodd" clip-rule="evenodd" d="M34.377 17.4256L36.2118 10.7373L37.9584 14.1937L34.377 17.4256Z" fill="#479951"/>
<path fill-rule="evenodd" clip-rule="evenodd" d="M33.2412 17.45L35.0761 10.7617L36.8226 14.2181L33.2412 17.45Z" fill="#D97B16"/>
<path fill-rule="evenodd" clip-rule="evenodd" d="M38.2963 10.6125V10.1566H38.1221V10.0771H38.5617V10.1566H38.3861V10.6125H38.2963ZM38.6217 10.6125V10.0771H38.7538L38.8897 10.5047L39.0211 10.0771H39.1505V10.6125H39.0686V10.1632L38.93 10.6125H38.8488L38.7043 10.1566V10.6125H38.6217Z" fill="black"/>
<path opacity="0.9375" fill-rule="evenodd" clip-rule="evenodd" d="M39.4207 10.3351C39.4207 10.7454 39.0865 11.0779 38.6742 11.0779C38.2619 11.0779 37.9277 10.7454 37.9277 10.3351C37.9277 9.92486 38.2619 9.59229 38.6742 9.59229C39.0865 9.59229 39.4207 9.92486 39.4207 10.3351Z" stroke="black" stroke-width="0.5"/>
</svg>
