<svg width="27" height="22" viewBox="0 0 27 22" fill="none" xmlns="http://www.w3.org/2000/svg">
<path d="M0.166504 21.625V16.625H1.4165V20.375H5.1665V21.625H0.166504ZM21.4165 21.625V20.375H25.1665V16.625H26.4165V21.625H21.4165ZM3.2915 18.5V3.5H5.7915V18.5H3.2915ZM7.0415 18.5V3.5H8.2915V18.5H7.0415ZM10.7915 18.5V3.5H13.2915V18.5H10.7915ZM14.5415 18.5V3.5H18.2915V18.5H14.5415ZM19.5415 18.5V3.5H20.7915V18.5H19.5415ZM22.0415 18.5V3.5H23.2915V18.5H22.0415ZM0.166504 5.375V0.375H5.1665V1.625H1.4165V5.375H0.166504ZM25.1665 5.375V1.625H21.4165V0.375H26.4165V5.375H25.1665Z" fill="black"/>
</svg>
