<svg width="272" height="275" viewBox="0 0 272 275" fill="none" xmlns="http://www.w3.org/2000/svg">
<path d="M188.539 10.2539H97.6552C93.7013 10.2539 90.4961 13.4591 90.4961 17.413V119.682C90.4961 123.636 93.7013 126.841 97.6552 126.841H188.539C192.493 126.841 195.698 123.636 195.698 119.682V17.413C195.698 13.4591 192.493 10.2539 188.539 10.2539Z" fill="#C5DCDD" stroke="black" stroke-width="6" stroke-linecap="round" stroke-linejoin="round"/>
<path d="M178.98 21.2829C177.831 20.1377 176.368 19.3583 174.776 19.0432C173.185 18.7281 171.536 18.8912 170.037 19.5121C168.538 20.1329 167.256 21.1837 166.354 22.5319C165.451 23.8801 164.968 25.4653 164.965 27.0877V51.0013H181.396V27.0877C181.396 26.0086 181.183 24.9402 180.768 23.944C180.353 22.9478 179.745 22.0434 178.98 21.2829ZM173.175 27.3314C172.824 27.332 172.481 27.2284 172.189 27.0339C171.897 26.8394 171.669 26.5626 171.534 26.2386C171.4 25.9145 171.364 25.5579 171.432 25.2137C171.5 24.8695 171.669 24.5532 171.917 24.3049C172.165 24.0566 172.481 23.8874 172.825 23.8187C173.169 23.7501 173.526 23.785 173.85 23.9192C174.174 24.0533 174.452 24.2806 174.647 24.5723C174.842 24.864 174.946 25.207 174.946 25.5579C174.946 26.0278 174.759 26.4784 174.427 26.8109C174.095 27.1435 173.645 27.3306 173.175 27.3314Z" stroke="#070707" stroke-width="6" stroke-linecap="round" stroke-linejoin="round"/>
<path d="M177.867 19.7536C176.717 18.6084 175.255 17.829 173.663 17.5139C172.072 17.1988 170.422 17.3619 168.923 17.9827C167.424 18.6036 166.143 19.6544 165.24 21.0026C164.338 22.3508 163.854 23.936 163.852 25.5584V49.472H180.283V25.5584C180.283 24.4794 180.069 23.411 179.654 22.4148C179.24 21.4186 178.632 20.5142 177.867 19.7536ZM172.062 25.8021C171.711 25.8027 171.368 25.6991 171.076 25.5046C170.784 25.3101 170.556 25.0333 170.421 24.7093C170.287 24.3852 170.251 24.0286 170.319 23.6844C170.387 23.3402 170.556 23.0239 170.804 22.7756C171.052 22.5273 171.368 22.3581 171.712 22.2894C172.056 22.2208 172.413 22.2557 172.737 22.3899C173.061 22.524 173.338 22.7513 173.533 23.043C173.728 23.3347 173.832 23.6777 173.832 24.0286C173.832 24.4985 173.646 24.9491 173.314 25.2817C172.982 25.6142 172.532 25.8013 172.062 25.8021Z" fill="#F4F1ED" stroke="#070707" stroke-width="6" stroke-linecap="round" stroke-linejoin="round"/>
<path d="M172.062 23.3615V9.09725C172.062 8.00852 172.495 6.96438 173.265 6.19453C174.035 5.42468 175.079 4.99219 176.168 4.99219C177.256 4.99219 178.3 5.42468 179.07 6.19453C179.84 6.96438 180.273 8.00852 180.273 9.09725V9.50803" stroke="#070707" stroke-width="6" stroke-linecap="round" stroke-linejoin="round"/>
<path d="M175.399 37.9444C175.251 37.601 175.029 37.2951 174.747 37.0491C174.489 36.8039 174.185 36.6115 173.852 36.4825C173.518 36.3654 173.067 36.2332 172.501 36.0859H172.464V33.2529H172.501C172.766 33.3276 173.007 33.4721 173.198 33.6714C173.389 33.8707 173.523 34.1175 173.586 34.3861C173.616 34.5922 173.721 34.78 173.881 34.9137C174.041 35.0474 174.245 35.1178 174.453 35.1114C174.565 35.1126 174.676 35.0911 174.78 35.0483C174.884 35.0055 174.978 34.9421 175.056 34.862C175.135 34.7857 175.198 34.6941 175.241 34.5929C175.284 34.4916 175.306 34.3827 175.306 34.2728C175.298 34.0379 175.241 33.8072 175.138 33.5957C175.016 33.3347 174.855 33.0932 174.662 32.8789C174.416 32.5846 174.105 32.3518 173.753 32.199C173.353 32.0366 172.931 31.9353 172.501 31.8987H172.464V31.0148C172.464 30.9021 172.419 30.794 172.34 30.7143C172.26 30.6346 172.152 30.5898 172.039 30.5898C171.926 30.5898 171.818 30.6346 171.739 30.7143C171.659 30.794 171.614 30.9021 171.614 31.0148V31.8789C170.67 31.9601 169.953 32.2509 169.464 32.7514C169.053 33.2078 168.797 33.7819 168.732 34.3922C168.666 35.0025 168.794 35.6179 169.098 36.1511C169.347 36.5279 169.691 36.8319 170.096 37.0321C170.582 37.2699 171.091 37.4597 171.614 37.5988V40.7689C171.348 40.6993 171.1 40.5716 170.889 40.3949C170.716 40.2441 170.576 40.0601 170.475 39.8538C170.353 39.5764 170.247 39.2927 170.155 39.0039C170.109 38.8416 170.009 38.6998 169.872 38.6016C169.717 38.5039 169.536 38.4546 169.353 38.46C169.235 38.4569 169.117 38.4788 169.007 38.5242C168.897 38.5695 168.798 38.6374 168.716 38.7235C168.636 38.7991 168.571 38.8904 168.528 38.9918C168.484 39.0931 168.461 39.2023 168.461 39.3127C168.464 39.6236 168.528 39.9307 168.651 40.2165C168.793 40.5448 168.992 40.8451 169.24 41.1032C169.524 41.4 169.862 41.6411 170.234 41.8143C170.673 42.0154 171.142 42.1417 171.623 42.1883V42.8427C171.623 42.9554 171.667 43.0635 171.747 43.1432C171.827 43.2229 171.935 43.2676 172.048 43.2676C172.16 43.2676 172.268 43.2229 172.348 43.1432C172.428 43.0635 172.473 42.9554 172.473 42.8427V42.1769H172.501C173.1 42.1415 173.682 41.9658 174.201 41.6641C174.653 41.3997 175.024 41.0167 175.274 40.5564C175.517 40.1095 175.642 39.6086 175.64 39.1003C175.642 38.7022 175.56 38.3082 175.399 37.9444ZM170.725 35.3182C170.619 35.2117 170.537 35.0837 170.486 34.9429C170.434 34.8021 170.413 34.6518 170.424 34.5023C170.412 34.3458 170.434 34.1884 170.489 34.0415C170.545 33.8945 170.632 33.7617 170.744 33.6523C171.005 33.4425 171.307 33.29 171.631 33.2047V35.8111C171.3 35.7068 170.992 35.5394 170.725 35.3182ZM173.558 40.2788C173.273 40.5783 172.9 40.7772 172.492 40.8454H172.456V37.8339H172.492C172.885 37.942 173.251 38.129 173.569 38.3835C173.693 38.5007 173.789 38.6437 173.852 38.8022C173.915 38.9608 173.942 39.1312 173.932 39.3014C173.942 39.6618 173.812 40.0122 173.569 40.2788H173.558Z" fill="#070707"/>
<path d="M80.712 49.562H66.5469C66.5469 49.562 52.9483 37.5018 46.999 30.4023C46.1885 29.4232 45.4491 28.3875 44.7864 27.3029C44.1581 26.2862 43.8118 25.1204 43.7832 23.9255C43.7546 22.7306 44.0446 21.5496 44.6236 20.5039C45.2025 19.4582 46.0495 18.5856 47.0774 17.9756C48.1053 17.3656 49.277 17.0403 50.4723 17.0332H50.6224C65 17.0389 80.7318 43.0829 80.712 49.562Z" fill="#1C0E0C"/>
<path d="M88.5337 49.5622H78.5671C78.5671 49.5622 68.9972 41.083 64.8128 36.0855C64.2411 35.3979 63.7185 34.6709 63.249 33.9098C62.8066 33.1946 62.5627 32.3744 62.5424 31.5337C62.5221 30.6929 62.7262 29.8619 63.1335 29.1262C63.5409 28.3905 64.137 27.7766 64.8603 27.3476C65.5837 26.9187 66.4082 26.6901 67.2492 26.6855H67.3568C77.4708 26.6827 88.5394 45.0039 88.5337 49.5622Z" fill="#F4F1ED"/>
<path d="M58.8969 3.43495C82.7369 3.18565 91.0291 37.2528 90.5107 49.5623H80.7113C80.7113 43.0832 64.988 17.0392 50.6103 17.0392C45.5109 17.0392 42.5079 21.572 44.0434 25.6997C44.0547 25.6997 34.1759 3.69559 58.8969 3.43495Z" fill="#EFAF00" stroke="black" stroke-width="6" stroke-linecap="round" stroke-linejoin="round"/>
<path d="M131.817 44.7281C133.497 40.7024 131.25 36.0676 127.049 34.8125C107.626 28.9453 87.7947 49.5613 87.7947 49.5613H82.9219C82.9219 49.5613 93.1208 19.5312 123.151 23.9932C129.701 24.9706 138.333 31.3024 131.817 44.7281Z" fill="#EFAF00" stroke="black" stroke-width="6" stroke-linecap="round" stroke-linejoin="round"/>
<path d="M131.789 44.7965C130.885 46.9043 129.78 48.8817 128.998 49.5617H117.949C117.949 49.5617 120.592 48.6664 123.145 44.7965C126.261 40.0965 124.811 34.2775 120.558 33.8809C122.75 33.9002 124.93 34.2108 127.04 34.8044C131.259 36.085 133.522 40.7538 131.789 44.7965Z" fill="#1C0E0C"/>
<path d="M136.052 48.5449H63.9117C55.1638 48.5449 48.0723 55.6365 48.0723 64.3844V148.962C48.0723 157.709 55.1638 164.801 63.9117 164.801H136.052C144.8 164.801 151.891 157.709 151.891 148.962V64.3844C151.891 55.6365 144.8 48.5449 136.052 48.5449Z" fill="#1C0E0C"/>
<path d="M116.649 48.5449H47.5231C38.7752 48.5449 31.6836 55.6365 31.6836 64.3844V148.962C31.6836 157.709 38.7752 164.801 47.5231 164.801H116.649C125.397 164.801 132.488 157.709 132.488 148.962V64.3844C132.488 55.6365 125.397 48.5449 116.649 48.5449Z" fill="#F4F1ED" stroke="#070707" stroke-width="6" stroke-linecap="round" stroke-linejoin="round"/>
<path d="M268.59 27.2266H248.019C242.999 27.2281 238.111 28.8364 234.071 31.816C230.03 34.7955 227.05 38.99 225.565 43.7856L192.506 150.701C190.463 157.311 186.357 163.093 180.789 167.199C175.221 171.306 168.485 173.521 161.567 173.521H47.1718C42.6089 173.52 38.1771 175.048 34.5851 177.862C30.9931 180.676 28.4483 184.613 27.3576 189.043L23.1789 211.218C22.5795 213.65 22.5413 216.188 23.0673 218.637C23.5932 221.087 24.6695 223.385 26.2146 225.357C27.7598 227.33 29.7334 228.925 31.986 230.022C34.2386 231.119 36.7112 231.689 39.2167 231.689H178.701" stroke="#070707" stroke-width="6" stroke-linecap="round" stroke-linejoin="round"/>
<path d="M161.671 173.522H55.5625C48.6432 173.523 41.9055 171.308 36.3367 167.201C30.7679 163.095 26.6608 157.313 24.6173 150.702L3.41211 65.2012H218.943L192.616 150.668C190.578 157.285 186.474 163.075 180.905 167.188C175.335 171.301 168.594 173.521 161.671 173.522Z" stroke="#070707" stroke-width="6" stroke-linecap="round" stroke-linejoin="round"/>
<path d="M91.1453 173.522L57.6504 65.2012" stroke="#070707" stroke-width="6" stroke-linecap="round" stroke-linejoin="round"/>
<path d="M119.42 173.522L152.915 65.2012" stroke="#070707" stroke-width="6" stroke-linecap="round" stroke-linejoin="round"/>
<path d="M203.289 115.832H16.459" stroke="#070707" stroke-width="6" stroke-linecap="round" stroke-linejoin="round"/>
<path d="M163.019 274.567C172.055 274.567 179.38 267.242 179.38 258.206C179.38 249.171 172.055 241.846 163.019 241.846C153.983 241.846 146.658 249.171 146.658 258.206C146.658 267.242 153.983 274.567 163.019 274.567Z" fill="#C5DCDD"/>
<path d="M51.9369 274.567C60.9727 274.567 68.2976 267.242 68.2976 258.206C68.2976 249.171 60.9727 241.846 51.9369 241.846C42.9011 241.846 35.5762 249.171 35.5762 258.206C35.5762 267.242 42.9011 274.567 51.9369 274.567Z" fill="#C5DCDD"/>
<path d="M159.617 271.692C168.652 271.692 175.977 264.367 175.977 255.331C175.977 246.296 168.652 238.971 159.617 238.971C150.581 238.971 143.256 246.296 143.256 255.331C143.256 264.367 150.581 271.692 159.617 271.692Z" stroke="#070707" stroke-width="6" stroke-linecap="round" stroke-linejoin="round"/>
<path d="M48.5326 271.692C57.5684 271.692 64.8933 264.367 64.8933 255.331C64.8933 246.296 57.5684 238.971 48.5326 238.971C39.4968 238.971 32.1719 246.296 32.1719 255.331C32.1719 264.367 39.4968 271.692 48.5326 271.692Z" stroke="#070707" stroke-width="6" stroke-linecap="round" stroke-linejoin="round"/>
<path d="M176.214 131.947H159.731C157.163 131.947 155.082 134.029 155.082 136.596V160.153C155.082 162.72 157.163 164.802 159.731 164.802H176.214C178.781 164.802 180.863 162.72 180.863 160.153V136.596C180.863 134.029 178.781 131.947 176.214 131.947Z" fill="#F46F40" stroke="black" stroke-width="6" stroke-linecap="round" stroke-linejoin="round"/>
</svg>
