<svg width="46" height="29" viewBox="0 0 46 29" fill="none" xmlns="http://www.w3.org/2000/svg">
<path d="M0.5 2.10938C0.5 0.949219 1.44922 0 2.60938 0H43.3906C44.5508 0 45.5 0.949219 45.5 2.10938V26.0156C45.5 27.1758 44.5508 28.125 43.3906 28.125H2.60938C1.44922 28.125 0.5 27.1758 0.5 26.0156V2.10938Z" fill="white"/>
<mask id="mask0_783_3329" style="mask-type:luminance" maskUnits="userSpaceOnUse" x="0" y="0" width="46" height="29">
<path d="M0.5 2.10938C0.5 0.949219 1.44922 0 2.60938 0H43.3906C44.5508 0 45.5 0.949219 45.5 2.10938V26.0156C45.5 27.1758 44.5508 28.125 43.3906 28.125H2.60938C1.44922 28.125 0.5 27.1758 0.5 26.0156V2.10938Z" fill="white"/>
</mask>
<g mask="url(#mask0_783_3329)">
<path d="M0.5 2.10938C0.5 0.949219 1.44922 0 2.60938 0H43.3906C44.5508 0 45.5 0.949219 45.5 2.10938V26.0156C45.5 27.1758 44.5508 28.125 43.3906 28.125H2.60938C1.44922 28.125 0.5 27.1758 0.5 26.0156V2.10938Z" fill="white" stroke="#CBCBCB" stroke-width="2" stroke-miterlimit="10"/>
</g>
<mask id="mask1_783_3329" style="mask-type:luminance" maskUnits="userSpaceOnUse" x="2" y="22" width="42" height="5">
<path d="M43.6016 22.5H2.36328V26.2617H43.6016V22.5Z" fill="white"/>
</mask>
<g mask="url(#mask1_783_3329)">
<path d="M45.3594 20.7422H0.605469V28.0195H45.3594V20.7422Z" fill="#F7B600"/>
</g>
<mask id="mask2_783_3329" style="mask-type:luminance" maskUnits="userSpaceOnUse" x="2" y="1" width="42" height="5">
<path d="M43.6016 1.86328H2.36328V5.625H43.6016V1.86328Z" fill="white"/>
</mask>
<g mask="url(#mask2_783_3329)">
<path d="M45.3594 0.105469H0.605469V7.38281H45.3594V0.105469Z" fill="#1A1F71"/>
</g>
<mask id="mask3_783_3329" style="mask-type:luminance" maskUnits="userSpaceOnUse" x="7" y="8" width="33" height="12">
<path d="M23.0703 9.10547L20.9258 19.1953H18.3242L20.4688 9.10547H23.0703ZM34.1094 15.6094L35.4805 11.8125L36.2891 15.6094H34.1094ZM37.0273 19.1953H39.4531L37.3438 9.10547H35.0938C34.6016 9.10547 34.1445 9.38672 33.9688 9.84375L30.0313 19.1953H32.7734L33.3008 17.6836H36.6758L37.0273 19.1953ZM30.207 15.8906C30.207 13.2187 26.5156 13.0781 26.5508 11.8828C26.5508 11.4961 26.9023 11.1445 27.6758 11.0391C28.5547 10.9688 29.4688 11.1094 30.2773 11.4961L30.7344 9.35156C29.9609 9.03516 29.1172 8.89453 28.2734 8.89453C25.6719 8.89453 23.8789 10.2656 23.8438 12.2344C23.8086 13.7109 25.1445 14.4844 26.1289 14.9766C27.1133 15.4687 27.5 15.8203 27.5 16.2422C27.5 16.9102 26.6563 17.2266 25.918 17.2266C24.9688 17.2617 24.0547 17.0156 23.2109 16.5937L22.7188 18.8086C23.6328 19.1953 24.6172 19.3711 25.6367 19.3359C28.3789 19.3711 30.1719 18 30.207 15.8906ZM19.3438 9.10547L15.125 19.1953H12.3477L10.2734 11.1094C10.1328 10.6172 10.0273 10.4414 9.67578 10.2305C8.86719 9.84375 7.98828 9.5625 7.07422 9.38672L7.14453 9.10547H11.6094C12.207 9.10547 12.7344 9.5625 12.8047 10.1602L13.8594 15.9609L16.5664 9.07031H19.3438V9.10547Z" fill="white"/>
</mask>
<g mask="url(#mask3_783_3329)">
<path d="M41.2109 7.13672H5.31641V21.0938H41.2109V7.13672Z" fill="#1A1F71"/>
</g>
</svg>
